<svg width="71" height="30" viewBox="0 0 71 30" fill="none" xmlns="http://www.w3.org/2000/svg">
<path d="M54.8155 10.1445C54.3339 9.18143 53.6116 8.37886 52.5683 8.13809C50.8829 7.65655 49.2777 7.81706 47.8331 8.8604C47.6726 8.94066 47.5924 9.02091 47.3516 9.18143C46.9503 8.13809 46.0675 8.13809 45.1846 8.21834C45.0241 8.21834 44.9439 8.21834 44.7834 8.21834C43.9005 8.21834 43.0177 8.21834 42.1349 8.21834C42.1349 8.45912 42.1349 8.61963 42.1349 8.78014C42.1349 15.4415 42.1349 22.1028 42.1349 28.7641C42.1349 28.9246 42.1349 29.0851 42.1349 29.2456C43.9808 29.2456 45.907 29.2456 47.7529 29.2456C47.7529 27.3997 47.7529 25.5538 47.7529 23.7882C48.5554 23.8684 49.358 24.0289 50.1606 24.0289C52.8893 24.0289 54.4944 22.7448 55.297 20.1766C55.297 20.0964 55.3773 19.9358 55.3773 19.8556C55.9391 17.7689 55.9391 15.6822 55.6983 13.5956C55.5378 12.3917 55.297 11.2681 54.8155 10.1445ZM49.9198 18.8122C49.679 20.0161 48.9567 20.3371 47.6726 19.9358C47.6726 19.6148 47.6726 19.2135 47.6726 18.8925C47.6726 16.8861 47.6726 14.8797 47.6726 12.8732C47.6726 12.5522 47.7529 12.3114 48.0739 12.2312C48.2344 12.1509 48.3949 12.0707 48.6357 12.0707C49.4383 11.8299 49.9198 12.0707 50.0001 12.8732C50.2408 14.8797 50.3211 16.8861 49.9198 18.8122ZM32.7448 8.61963C32.7448 9.98399 32.7448 11.3484 32.7448 12.793C32.1028 12.7127 31.541 12.6325 30.9792 12.5522C30.6582 12.5522 30.4174 12.5522 30.0964 12.5522C28.9728 12.7127 28.8123 12.8732 28.8123 13.9968C28.8123 16.9663 28.8123 20.0161 28.8123 22.9856C28.8123 23.1461 28.8123 23.3869 28.8123 23.5474C26.9664 23.5474 25.1204 23.5474 23.2745 23.5474C23.2745 18.411 23.2745 13.2745 23.2745 8.13809C23.3548 8.13809 23.5153 8.13809 23.6758 8.13809C24.8797 8.13809 26.0835 8.13809 27.2874 8.13809C27.6084 8.13809 27.7689 8.21834 27.9294 8.53937C28.0899 8.94066 28.3307 9.26168 28.4912 9.58271C29.5346 7.97757 30.5779 7.57629 32.3436 7.97757C32.5843 8.13809 32.7448 8.2986 32.7448 8.61963ZM39.7272 3.56345C39.7272 5.08833 38.4431 6.37244 36.9182 6.37244C36.6774 6.37244 36.4367 6.37244 36.2761 6.29218C35.7946 6.13167 35.3131 5.8909 34.992 5.56987C34.4302 5.08833 34.1092 4.36602 34.1092 3.56345C34.1092 2.19908 35.1525 0.99523 36.5169 0.834717H36.5972C36.8379 0.834717 36.9985 0.834717 37.2392 0.834717C37.2392 0.834717 37.2392 0.834717 37.3195 0.834717C38.6036 0.914974 39.7272 2.11883 39.7272 3.56345ZM34.1092 8.21834C35.9551 8.21834 37.801 8.21834 39.6469 8.21834C39.6469 13.3548 39.6469 18.4912 39.6469 23.7079C37.801 23.7079 35.9551 23.7079 34.1092 23.7079C34.1092 18.4912 34.1092 13.3548 34.1092 8.21834ZM70.1445 12.9535C69.984 11.5891 69.4222 10.305 68.3789 9.34194C67.0948 8.13809 65.4896 7.89732 63.8042 7.97757C60.5137 8.13809 58.5875 9.58271 57.785 12.472C57.1429 14.7994 57.1429 17.2071 57.785 19.6148C58.427 21.862 59.8716 23.3066 62.1991 23.7882C64.2858 24.1894 66.3725 24.1092 68.4591 23.6277C69.663 23.3066 69.663 23.3066 69.663 22.1028C69.663 21.1397 69.663 20.2569 69.663 19.2938C69.1814 19.374 68.6999 19.4543 68.2184 19.5346C66.9342 19.7753 65.5699 20.0161 64.2055 19.8556C63.1622 19.6951 62.7609 19.053 62.8412 17.9294C65.3291 17.9294 67.8171 17.9294 70.4656 17.9294C70.3853 16.0835 70.3853 14.5586 70.1445 12.9535ZM62.7609 14.7191C62.8411 13.8363 62.9214 13.0338 63.0017 12.2312C63.0017 11.9904 63.1622 11.7496 63.3227 11.5891C63.8042 11.0273 64.7673 11.1878 64.9278 11.9102C65.0883 12.793 65.1686 13.7561 65.2489 14.7994C64.366 14.7191 63.6437 14.7191 62.7609 14.7191ZM19.0209 12.2312C19.0209 14.3179 19.0209 16.3243 19.0209 18.411C19.0209 18.5715 19.0209 18.732 19.0209 18.8925C19.1012 19.6148 19.342 19.7753 20.0643 19.7753C20.7063 19.7753 21.2681 19.6148 21.9102 19.6148C21.9102 20.8989 21.9102 22.183 21.9102 23.5474C19.984 23.8684 18.0578 24.2697 16.1317 23.8684C14.366 23.4671 13.4029 22.0225 13.4029 19.9358C13.4029 17.4479 13.4029 14.9599 13.4029 12.3917C13.4029 12.2312 13.4029 12.0707 13.4029 11.8299C12.6806 11.8299 12.0386 11.8299 11.3965 11.8299C11.3965 10.626 11.3965 9.50245 11.3965 8.2986C12.0386 8.2986 12.6806 8.2986 13.4029 8.2986C13.6437 7.25526 13.8042 6.29218 14.045 5.24884C14.1253 4.92781 14.2055 4.7673 14.6068 4.68704C16.0514 4.36602 17.5763 3.96473 19.0209 3.64371C19.0209 5.16858 19.0209 6.69346 19.0209 8.2986C20.0643 8.2986 20.9471 8.2986 21.9904 8.2986C21.7497 9.50245 21.5089 10.626 21.2681 11.8299C20.5458 11.8299 19.8235 11.8299 19.1012 11.8299C19.1012 11.9102 19.0209 12.0707 19.0209 12.2312ZM10.7545 19.4543C10.4334 22.2633 8.90856 23.7079 6.01932 23.9487C4.17341 24.1092 2.40776 23.8684 0.642111 23.3869C0.481598 23.3869 0.240827 23.1461 0.240827 23.0659C0.240827 21.862 0.240827 20.6581 0.240827 19.374C1.12365 19.5346 2.00648 19.7753 2.80905 19.9358C3.37084 20.0161 3.93264 20.0161 4.41418 19.9358C4.65495 19.9358 5.05624 19.6148 5.13649 19.374C5.29701 19.053 5.13649 18.6517 4.81547 18.411C4.33393 18.1702 3.85238 17.9294 3.37084 17.6886C2.80905 17.3676 2.24725 17.1269 1.76571 16.8058C0.802625 16.0835 0.16057 15.1204 5.66319e-05 13.9166C5.66319e-05 13.8363 -0.0802002 13.6758 -0.0802002 13.5956C-0.0802002 13.2745 -0.0802002 12.9535 -0.0802002 12.7127C5.66319e-05 12.3114 0.0803135 11.9102 0.16057 11.5089C0.722368 9.58271 2.08673 8.69988 3.93264 8.2986C5.85881 7.89732 7.78497 8.05783 9.71113 8.69988C10.0322 8.78014 10.1124 8.94066 10.1124 9.26168C10.1124 10.3853 10.1124 11.5089 10.1124 12.6325C9.14933 12.472 8.18625 12.3114 7.30343 12.1509C6.90214 12.0707 6.50086 12.0707 6.17983 12.1509C5.93906 12.2312 5.53778 12.472 5.53778 12.7127C5.45752 12.9535 5.69829 13.3548 5.85881 13.5956C6.26009 13.9166 6.82189 14.0771 7.22317 14.3179C7.78497 14.6389 8.42702 14.8797 8.98882 15.2809C10.5137 16.1638 10.915 17.7689 10.7545 19.4543Z" fill="white"/>
</svg>
