<svg width="81" height="14" viewBox="0 0 81 14" fill="none" xmlns="http://www.w3.org/2000/svg">
<path d="M42.8491 0.298584C39.0771 0.298584 35.947 3.26809 35.947 6.87964C35.947 10.732 38.9166 13.7015 42.8491 13.7015C46.7015 13.7015 49.671 10.732 49.671 6.9599C49.671 3.26809 46.7015 0.298584 42.8491 0.298584Z" fill="white"/>
<path d="M3.84437 0.539551H0.152588V13.3806H3.84437C5.77053 13.3806 7.21515 12.8991 8.419 11.8558C9.86362 10.6519 10.7465 8.806 10.7465 6.87984C10.7465 3.18803 7.93745 0.539551 3.84437 0.539551ZM6.81387 10.2506C6.0113 10.9729 4.96798 11.294 3.36285 11.294H2.72081V2.70648H3.36285C4.96798 2.70648 5.93105 3.02751 6.81387 3.74982C7.69669 4.55239 8.17824 5.75624 8.17824 6.9601C8.17824 8.24421 7.69669 9.44806 6.81387 10.2506Z" fill="white"/>
<path d="M14.4383 0.539551H11.9503V13.3806H14.4383V0.539551Z" fill="white"/>
<path d="M20.5377 5.51534C19.0129 4.95355 18.6116 4.55226 18.6116 3.91021C18.6116 3.10764 19.4142 2.46558 20.4575 2.46558C21.1798 2.46558 21.8219 2.78661 22.4639 3.50892L23.748 1.82353C22.7047 0.860448 21.3403 0.378906 19.976 0.378906C17.7288 0.378906 15.9631 1.98404 15.9631 4.07072C15.9631 5.83637 16.7657 6.7192 19.0931 7.60202C20.0562 7.92305 20.618 8.16382 20.8588 8.32433C21.3403 8.64536 21.5811 9.1269 21.5811 9.6887C21.5811 10.732 20.7785 11.5346 19.6549 11.5346C18.4511 11.5346 17.488 10.9728 16.9262 9.84921L15.321 11.4543C16.4446 13.1397 17.8893 13.9423 19.8155 13.9423C22.3837 13.9423 24.2296 12.1767 24.2296 9.6887C24.3098 7.44151 23.427 6.55868 20.5377 5.51534Z" fill="white"/>
<path d="M25.1123 6.95999C25.1123 10.7321 28.0818 13.7016 31.9342 13.7016C32.9775 13.7016 33.9406 13.4608 35.0642 12.9792V10.0097C34.0209 11.0531 33.138 11.4544 32.0144 11.4544C29.4462 11.4544 27.6805 9.60846 27.6805 7.04024C27.6805 4.55228 29.5265 2.62612 31.8539 2.62612C33.0578 2.62612 33.9406 3.0274 34.9839 4.07074V1.10124C33.8603 0.539438 32.9775 0.298668 31.8539 0.298668C28.1621 0.218411 25.1123 3.26817 25.1123 6.95999Z" fill="white"/>
<path d="M55.3693 9.20729L51.9182 0.539551H49.1895L54.6469 13.7819H56.0113L61.5491 0.539551H58.8203L55.3693 9.20729Z" fill="white"/>
<path d="M62.7529 13.4609H69.8155V11.2137H65.2409V7.76266H69.655V5.59573H65.2409V2.70648H69.8155V0.539551H62.7529V13.4609Z" fill="white"/>
<path d="M79.7672 4.31162C79.7672 1.90392 78.0818 0.539551 75.1926 0.539551H71.5007V13.3806H73.9887V8.24421H74.3097L77.7608 13.3806H80.8105L76.7174 7.92318C78.7238 7.60215 79.7672 6.31804 79.7672 4.31162ZM74.711 6.47856H73.9887V2.54597H74.7913C76.3964 2.54597 77.199 3.18803 77.199 4.47213C77.199 5.75624 76.3161 6.47856 74.711 6.47856Z" fill="white"/>
</svg>
