<svg width="73" height="44" viewBox="0 0 73 44" fill="none" xmlns="http://www.w3.org/2000/svg">
<path opacity="0.8" fill-rule="evenodd" clip-rule="evenodd" d="M50.9664 43.3885H52.0899L53.2135 43.3082L54.2569 43.1477L55.3002 42.9872L56.3435 42.7464L57.3869 42.4254L58.35 42.1044L59.3131 41.7031L60.2762 41.3018L61.2392 40.8202L62.122 40.3387L63.0049 39.7769L63.8074 39.1348L64.61 38.4928L65.4126 37.8507L66.1349 37.1284L66.8572 36.4061L67.5795 35.6035L68.2216 34.801L68.7834 33.9984L69.3452 33.1156L69.8267 32.1525L70.3083 31.2697L70.7898 30.3066L71.1108 29.3435L71.5121 28.3804L71.7529 27.3371L71.9936 26.2938L72.2344 25.2504L72.3147 24.1268L72.3949 23.0835L72.4752 21.9599L72.3949 20.8363L72.3147 19.793L72.2344 18.7496L71.9936 17.7063L71.7529 16.6629L71.5121 15.6196L71.1108 14.6565L70.7898 13.6934L70.3083 12.7304L69.8267 11.7673L69.3452 10.8844L68.7834 10.0016L68.2216 9.19905L67.5795 8.39648L66.8572 7.59392L66.1349 6.8716L65.4126 6.14929L64.61 5.50724L63.8074 4.86518L63.0049 4.22313L62.122 3.66133L61.2392 3.17979L60.2762 2.69825L59.3131 2.29697L58.35 1.89568L57.3869 1.57465L56.3435 1.25363L55.3002 1.01286L54.2569 0.852343L53.2135 0.691829L52.0899 0.611572H50.9664H49.923L48.7994 0.691829L47.7561 0.852343L46.7127 1.01286L45.6694 1.25363L44.6261 1.57465L43.663 1.89568L42.6999 2.29697L41.7368 2.69825L40.7737 3.17979L39.8909 3.66133L39.0883 4.22313L38.2055 4.86518L37.403 5.50724L36.6004 6.14929L35.8781 6.8716L35.1558 7.59392L34.5137 8.39648L33.8716 9.19905L33.3099 10.0016L32.7481 10.8844L32.1863 11.7673L31.7047 12.7304L31.3034 13.6934L30.9022 14.6565L30.5811 15.6196L30.3403 16.6629L30.0996 17.7063L29.8588 18.7496L29.7786 19.793L29.6983 20.8363L29.618 21.9599L29.6983 23.0835L29.7786 24.1268L29.8588 25.2504L30.0996 26.2938L30.3403 27.3371L30.5811 28.3804L30.9022 29.3435L31.3034 30.3066L31.7047 31.2697L32.1863 32.1525L32.7481 33.1156L33.3099 33.9984L33.8716 34.801L34.5137 35.6035L35.1558 36.4061L35.8781 37.1284L36.6004 37.8507L37.403 38.4928L38.2055 39.1348L39.0883 39.7769L39.8909 40.3387L40.7737 40.8202L41.7368 41.3018L42.6999 41.7031L43.663 42.1044L44.6261 42.4254L45.6694 42.7464L46.7127 42.9872L47.7561 43.1477L48.7994 43.3082L49.923 43.3885H50.9664Z" fill="white"/>
<path fill-rule="evenodd" clip-rule="evenodd" d="M22.3949 43.3885H23.4383L24.5619 43.3082L25.6052 43.1477L26.6485 42.9872L27.6919 42.7464L28.7352 42.4254L29.6983 42.1044L30.6614 41.7031L31.6245 41.3018L32.5875 40.8202L33.4704 40.3387L34.2729 39.7769L35.1558 39.1348L35.9583 38.4928L36.7609 37.8507L37.4832 37.1284L38.2055 36.4061L38.8476 35.6035L39.4896 34.801L40.0514 33.9984L40.6132 33.1156L41.175 32.1525L41.6566 31.2697L42.0578 30.3066L42.4591 29.3435L42.7801 28.3804L43.0209 27.3371L43.2617 26.2938L43.5025 25.2504L43.5827 24.1268L43.663 23.0835L43.7432 21.9599L43.663 20.8363L43.5827 19.793L43.5025 18.7496L43.2617 17.7063L43.0209 16.6629L42.7801 15.6196L42.4591 14.6565L42.0578 13.6934L41.6566 12.7304L41.175 11.7673L40.6132 10.8844L40.0514 10.0016L39.4896 9.19905L38.8476 8.39648L38.2055 7.59392L37.4832 6.8716L36.7609 6.14929L35.9583 5.50724L35.1558 4.86518L34.2729 4.22313L33.4704 3.66133L32.5875 3.17979L31.6245 2.69825L30.6614 2.29697L29.6983 1.89568L28.7352 1.57465L27.6919 1.25363L26.6485 1.01286L25.6052 0.852343L24.5619 0.691829L23.4383 0.611572H22.3949H21.2713L20.1477 0.691829L19.1044 0.852343L18.0611 1.01286L17.0177 1.25363L15.9744 1.57465L15.0113 1.89568L14.0482 2.29697L13.0851 2.69825L12.1221 3.17979L11.2392 3.66133L10.3564 4.22313L9.55383 4.86518L8.75127 5.50724L7.9487 6.14929L7.22639 6.8716L6.50409 7.59392L5.78175 8.39648L5.13971 9.19905L4.5779 10.0016L4.01612 10.8844L3.53457 11.7673L3.05303 12.7304L2.57148 13.6934L2.25046 14.6565L1.84918 15.6196L1.60841 16.6629L1.36763 17.7063L1.12687 18.7496L1.04661 19.793L0.966346 20.8363L0.886108 21.9599L0.966346 23.0835L1.04661 24.1268L1.12687 25.2504L1.36763 26.2938L1.60841 27.3371L1.84918 28.3804L2.25046 29.3435L2.57148 30.3066L3.05303 31.2697L3.53457 32.1525L4.01612 33.1156L4.5779 33.9984L5.13971 34.801L5.78175 35.6035L6.50409 36.4061L7.22639 37.1284L7.9487 37.8507L8.75127 38.4928L9.55383 39.1348L10.3564 39.7769L11.2392 40.3387L12.1221 40.8202L13.0851 41.3018L14.0482 41.7031L15.0113 42.1044L15.9744 42.4254L17.0177 42.7464L18.0611 42.9872L19.1044 43.1477L20.1477 43.3082L21.2713 43.3885H22.3949Z" fill="white"/>
<path d="M26.488 21.3178H26.4078H26.3275H26.2472L26.0867 21.2376H26.0065H25.9262H25.8459H25.7657L25.6052 21.1573H25.5249H25.3644H25.2842H25.1236H24.9631H24.7224L24.5619 21.2376H24.4013H24.2408L24.1606 21.3178H24L23.9198 21.3981L23.8395 21.4783H23.7593L23.679 21.5586V21.6389L23.5988 21.7191V21.7994V21.8796V22.0401L23.679 22.1204V22.2007L23.7593 22.2809L23.9198 22.4414L24.0803 22.5217L24.3211 22.6019L24.4816 22.6822L24.7224 22.7625L24.9631 22.8427L25.2039 22.923L25.4447 23.0032L25.6854 23.1637L25.8459 23.3243L26.0867 23.4848L26.2472 23.7255L26.3275 23.9663L26.4078 24.2873V24.6886V25.1702L26.3275 25.4912L26.2472 25.8122L26.167 26.053L26.0065 26.2938L25.8459 26.5345L25.6052 26.695L25.4447 26.8556L25.2039 27.0161L24.9631 27.0963L24.7224 27.1766L24.4816 27.2568L24.2408 27.3371H24L23.7593 27.4174H23.5185H23.2777H22.9567H22.7159H22.4752H22.2344H21.9936H21.8331L21.5923 27.3371H21.4318H21.3516H21.1911L21.0305 27.2568H20.9503L20.7898 27.1766H20.7095L20.549 27.0963H20.4688L20.7898 25.4912H20.87L21.0305 25.5714H21.1108H21.2713L21.4318 25.6517H21.5923L21.7529 25.732H21.9134H22.0739L22.3146 25.8122H22.4752H22.7159H22.9567H23.1172H23.358L23.5185 25.732H23.679L23.8395 25.6517L23.9198 25.5714L24 25.4109L24.0803 25.3307V25.1702L24.1606 25.0899V24.8491L24.0803 24.6886L24 24.5281L23.7593 24.4478L23.5988 24.2873L23.358 24.2071L23.037 24.1268L22.7962 23.9663L22.4752 23.886L22.1541 23.7255L21.9134 23.565L21.6726 23.3243L21.5121 23.0032L21.4318 22.6822L21.3516 22.2809V21.8796V21.5586L21.4318 21.3178L21.5121 21.0771L21.5923 20.8363L21.6726 20.5955L21.8331 20.435L21.9936 20.2745L22.1541 20.114L22.3949 19.9535L22.6357 19.8732L22.8765 19.7127L23.1172 19.6324L23.5185 19.5522H23.8395L24.2408 19.4719H24.6421H24.8829H25.1236H25.3644L25.6052 19.5522H25.7657H25.9262H26.0867H26.2472H26.3275L26.4078 19.6324H26.488H26.6485H26.7288L26.809 19.7127H26.8893L26.488 21.3178Z" fill="#3C3C3B"/>
<path d="M28.2537 17.8669H30.1799L29.9391 19.6326H31.143L30.9022 21.318L29.6181 21.2377L28.8958 25.2506V25.4111V25.5716L28.976 25.6519L29.1365 25.7321H29.2168L29.3773 25.8124H29.5378H29.6983H29.8588H30.0194H30.0996H30.2601L30.3404 25.7321H30.4207H30.5009L30.1799 27.0162V27.0965H30.0996V27.1767H30.0194H29.9391L29.8588 27.257H29.7786H29.6983H29.6181L29.5378 27.3372H29.4576H29.3773H29.2168H29.1365L29.0563 27.4175H28.4945L28.1735 27.3372H27.9327L27.6919 27.257H27.5314L27.3709 27.1767L27.2104 27.0965L27.0498 27.0162L26.9696 26.936L26.8893 26.8557V26.6952L26.8091 26.5347V26.4544V26.2939V26.1334V25.9729V25.8124L28.2537 17.8669Z" fill="#3C3C3B"/>
<path d="M32.748 23.9663L32.6677 24.1268V24.2873L32.748 24.3676V24.5281V24.6886L32.8282 24.7689L32.9085 24.9294L32.9888 25.0899L33.1493 25.1702L33.2295 25.2504L33.3098 25.4109L33.4703 25.4912L33.6308 25.5714L33.7111 25.6517H33.8716L34.0321 25.732H34.1926H34.4334L34.5939 25.8122H34.7544H34.9952H35.1557H35.3162H35.557L35.7175 25.732H35.9582L36.1188 25.6517L36.3595 25.5714L36.5201 25.4912L36.7608 25.4109L36.9213 25.3307L37.1621 25.1702L36.8411 26.9358L36.7608 27.0161L36.6003 27.0963H36.5201L36.4398 27.1766H36.2793L36.199 27.2568H36.0385L35.9582 27.3371H35.7977H35.6372H35.557H35.3162H35.1557H34.9952L34.7544 27.4174H34.5136L34.1926 27.3371H33.7913L33.4703 27.2568L33.069 27.1766L32.748 27.0963L32.3467 26.9358L32.0257 26.7753L31.7849 26.5345L31.4639 26.2938L31.2231 26.053L30.9823 25.6517L30.8218 25.3307L30.7416 24.8491L30.6613 24.3676L30.5811 23.886L30.6613 23.244V23.0032L30.7416 22.7625V22.5217L30.8218 22.2007L30.9823 21.8796L31.0626 21.5586L31.3034 21.2376L31.4639 20.9165L31.7046 20.6758L31.9454 20.3547L32.2664 20.114L32.6677 19.9535L33.069 19.7127L33.5505 19.6324L34.0321 19.5522L34.6741 19.4719H34.9149L35.2359 19.5522H35.557L35.7977 19.6324L36.1188 19.793L36.3595 19.8732L36.6806 20.0337L36.9213 20.2745L37.0818 20.5153L37.3226 20.8363L37.4029 21.1573L37.5634 21.4783V21.9599V22.4414V23.0032L37.4029 23.565V24.0466H32.1059L32.5072 22.6019H35.6372V22.4414V22.2809V22.1204L35.557 21.9599V21.7994L35.4767 21.7191L35.3965 21.5586L35.3162 21.4783L35.2359 21.3981L35.1557 21.3178L35.0754 21.2376H34.9149L34.8347 21.1573H34.7544L34.5939 21.0771H34.4334H34.3531L34.1926 21.1573H34.1124L33.9518 21.2376H33.8716L33.7111 21.3178L33.6308 21.3981L33.5505 21.4783L33.4703 21.5586L33.3098 21.7191L33.2295 21.7994V21.9599L33.1493 22.0401L33.069 22.2007V22.3612L32.9888 22.5217L32.748 23.9663Z" fill="#3C3C3B"/>
<path d="M49.9231 20.1139L49.8429 20.0336L49.7626 19.9534H49.6823L49.5218 19.8731H49.4416L49.281 19.7928H49.2008L49.0403 19.7126H48.96L48.7995 19.6323H48.639H48.4785L48.318 19.5521H48.1575H47.9969H47.8364H47.5956H47.4352L47.2746 19.6323H47.0339L46.8733 19.7126L46.6326 19.7928L46.3918 19.8731L46.2313 20.0336L46.0708 20.1941L45.83 20.3546L45.6695 20.5954L45.509 20.8362L45.3485 21.1572L45.1879 21.5585L45.0275 21.9598L44.9472 22.3611L44.8669 22.6821V22.9229V23.1636V23.4044V23.6452L44.9472 23.8859V24.1267L45.0275 24.2872L45.1879 24.528L45.2682 24.6885L45.4287 24.849L45.5892 25.0095L45.83 25.1701L46.0708 25.2503L46.3115 25.3306L46.5523 25.4108H46.6326L46.7931 25.4911H46.8733H47.0339H47.1944H47.3549H47.5154H47.7562H47.9167L48.0772 25.4108H48.318L48.4785 25.3306L48.639 25.2503L48.7995 25.1701L48.96 25.0095L49.1205 24.9293L48.7995 26.8554H48.7192V26.9357H48.639L48.5587 27.016L48.4785 27.0962H48.3982L48.318 27.1765H48.1575L47.9969 27.2567H47.7562L47.5956 27.337H47.3549H47.0339H46.7128H46.3115H45.9103H45.5892L45.2682 27.2567L44.9472 27.0962L44.6262 27.016L44.3051 26.7752L43.9841 26.6147L43.7433 26.3739L43.4223 26.0529L43.1815 25.7318L43.021 25.3306L42.8605 24.9293L42.7 24.528L42.6198 24.0465V23.4847V22.9229L42.7 22.3611V22.04L42.7802 21.7993L42.8605 21.4782L42.9408 21.2375L43.021 20.9967L43.1013 20.7559L43.1815 20.5152L43.3421 20.2744L43.4223 20.0336L43.5026 19.7928L43.6631 19.6323L43.7433 19.4718L43.9038 19.231L44.0644 19.0705L44.2249 18.91L44.3854 18.7495L44.5459 18.589L44.7064 18.5087L44.8669 18.3482L45.0275 18.268L45.2682 18.1075L45.4287 18.0272L45.5892 17.9469L45.83 17.8667L46.0708 17.7864H46.3115L46.5523 17.7062L46.7931 17.6259H47.0339H47.2746L47.5154 17.5457H47.8364H47.9969L48.2377 17.6259H48.4785H48.7192L48.8798 17.7062H49.1205L49.281 17.7864H49.4416L49.6021 17.8667H49.7626L49.9231 17.9469H50.0033L50.0836 18.0272H50.1639H50.2441L50.3244 18.1075L49.9231 20.1139Z" fill="#3C3C3B"/>
<path fill-rule="evenodd" clip-rule="evenodd" d="M67.74 27.4173H65.7336L65.8941 26.6147V26.5345L65.8139 26.695L65.6534 26.8555L65.4929 26.9358L65.3323 27.016L65.1718 27.0963L65.0113 27.1765L64.8508 27.2568L64.6903 27.3371L64.5298 27.4173H64.3692H64.2087H64.0482H63.8877H63.7272H63.5667H63.7272H63.3259L63.0049 27.3371L62.6839 27.1765L62.3628 27.016L62.1221 26.7753L61.8813 26.5345L61.6405 26.2937L61.48 25.9727L61.3195 25.6517L61.2392 25.3306L61.159 25.0096L61.0787 24.6083V24.207V23.8058V23.4045L61.159 23.0032L61.2392 22.6019L61.3998 22.2006L61.5603 21.7993L61.7208 21.4783L61.8813 21.1573L62.1221 20.8362L62.3628 20.5955L62.6036 20.3547L62.8444 20.1139L63.0852 19.9534L63.3259 19.7929L63.5667 19.6324L63.8877 19.5521L64.2087 19.4719L64.5298 19.3916H64.8508H65.0916H65.3323H65.4929L65.6534 19.4719L65.8139 19.5521L65.9744 19.6324L66.1349 19.7127L66.2954 19.7929L66.3757 19.8732L66.4559 19.9534L66.5362 20.0337L66.6165 20.1139L66.6967 20.1942L66.777 20.2745L66.8572 20.3547L66.9375 20.435L67.419 17.626H69.3452L67.74 27.4173ZM64.4495 25.6517H64.6903L64.8508 25.5714L65.0113 25.4911L65.1718 25.4109L65.3323 25.3306L65.4929 25.2504L65.6534 25.0899L65.8139 24.9293L65.8941 24.7688L65.9744 24.6083L66.0546 24.4478L66.1349 24.2873L66.2152 24.1268L66.2954 23.9663L66.3757 23.8058V23.6452V23.4045V23.1637V23.0032V22.7624V22.6019V22.4414L66.2954 22.2809L66.2152 22.1204L66.1349 21.9598L66.0546 21.7993L65.9744 21.7191L65.8941 21.6388L65.7336 21.5586L65.5731 21.4783H65.4126H65.2521H65.0916H64.9311L64.7705 21.5586L64.61 21.6388L64.4495 21.7191L64.289 21.7993L64.1285 21.9598L63.968 22.1204L63.8877 22.2809L63.8075 22.4414L63.7272 22.6019V22.6822L63.6469 22.8427L63.5667 23.0032L63.4864 23.244L63.4062 23.4847V23.8058V24.1268L63.4864 24.4478L63.5667 24.7688L63.7272 25.0899L63.8877 25.3306L64.1285 25.4911L64.4495 25.6517Z" fill="#3C3C3B"/>
<path fill-rule="evenodd" clip-rule="evenodd" d="M20.0675 25.8122L19.7464 27.4174H17.9808L18.061 27.0963V26.8556V26.6148V26.5345L17.9808 26.6148L17.9005 26.695L17.74 26.7753L17.5795 26.8556L17.419 26.9358L17.2585 27.0161L17.0979 27.0963L16.9374 27.1766L16.6967 27.2568L16.4559 27.3371L16.2151 27.4174H15.9744H15.7336H15.4928H15.252H15.0915L14.8508 27.3371L14.61 27.2568L14.3692 27.1766L14.2087 27.0963L14.0482 27.0161L13.8877 26.8556L13.9679 26.695L13.8877 26.5345L13.8074 26.374L13.7272 26.2135L13.6469 26.053L13.5667 25.8925V25.732V25.5714V25.4109V25.2504V24.9294L13.6469 24.6886L13.7272 24.4478L13.8074 24.2071L13.8877 23.9663L14.0482 23.7255L14.2087 23.4848L14.3692 23.3243L14.5297 23.1637L14.7705 23.0032L15.0113 22.8427L15.252 22.7625L15.4928 22.6822H15.5731L15.8138 22.6019L16.0546 22.5217H16.1349H16.2151H16.2954H16.3756H16.4559H16.6164H16.7769H16.9374H17.0979H17.1782H17.2585H17.3387H17.419H17.4992H17.6598H17.8203H17.9808H18.1413H18.3018H18.3821H18.4623V22.4414L18.5426 22.2809V22.1204V21.9599V21.7994L18.4623 21.6389L18.3821 21.4783L18.3018 21.3981L18.1413 21.3178L17.9808 21.2376L17.8203 21.1573H17.6598H17.419H17.1782H16.9374H16.6967H16.4559H16.2151H15.9744H15.7336H15.4928H15.252H15.0915H14.931L14.7705 21.2376L14.61 21.3178L14.5297 21.3981L14.4495 21.4783L14.931 19.7127L15.0915 19.6324L15.252 19.5522L15.4125 19.4719H15.5731H15.7336H15.8941H16.0546H16.2151H16.4559H16.6967H16.9374H17.1782H17.419H17.6598H17.9005H18.1413H18.3821H18.6228L18.8636 19.5522L19.1044 19.6324L19.3452 19.7127L19.5859 19.793L19.8267 19.9535L20.0675 20.114L20.228 20.2745L20.3885 20.435L20.549 20.5955L20.6292 20.8363L20.7095 21.0771L20.7898 21.3178V21.5586L20.7095 21.8796L20.0675 25.8122ZM18.3821 23.886L18.3018 23.8058H18.2215H18.1413H18.061H17.9808H17.9005H17.8203H17.6598H17.5795H17.4992H17.419H17.3387H17.2585H17.1782H17.0979H17.0177H16.9374H16.8572L16.7769 23.886L16.6967 23.9663L16.6164 24.0466L16.5362 24.1268L16.4559 24.2071L16.3756 24.2873L16.2954 24.3676L16.2151 24.4478L16.1349 24.5281L16.0546 24.6084L15.9744 24.6886V24.7689V25.0096V25.1702L16.0546 25.3307L16.1349 25.4109L16.2151 25.4912L16.3756 25.5714H16.4559H16.5362H16.7769H16.9374H17.0979L17.2585 25.4912L17.419 25.4109L17.5795 25.3307L17.74 25.2504L17.8203 25.1702L17.9005 25.0899L17.9808 25.0096L18.061 24.9294L18.1413 24.8491L18.2215 24.7689L18.3018 24.6886V24.6084V24.5281L18.3821 24.2873L18.4623 24.0466L18.5426 23.8058L18.3821 23.886Z" fill="#3C3C3B"/>
<path d="M4.89896 27.4175H2.97278L4.57791 17.8669H8.02896L8.34998 23.4849L10.6774 17.8669H14.289L12.6036 27.4175H10.5972L11.8813 20.2746H11.801L8.83153 27.4175H6.58433V27.0965V26.2939L6.50409 25.1703L6.42383 23.8862L6.34357 22.6021L6.26331 21.4785V20.6759L6.18304 20.2746H6.10281L4.89896 27.4175Z" fill="#3C3C3B"/>
<path fill-rule="evenodd" clip-rule="evenodd" d="M55.9423 25.8121L55.6212 27.4173H53.7753V27.0963V26.8555V26.695V26.6147L53.6951 26.695L53.6148 26.7752L53.4543 26.8555L53.2938 26.9357L53.1333 27.016L52.9728 27.0963L52.8122 27.1765L52.6517 27.2568L52.4912 27.337L52.2505 27.4173H52.0097H51.7689H51.5281H51.2874H51.1268H50.9663L50.7256 27.337L50.4848 27.2568L50.244 27.1765L50.0835 27.0963L49.923 27.016L49.7625 26.8555L49.6822 26.695L49.602 26.5345L49.5217 26.3739L49.4415 26.2134L49.3612 26.0529V25.8924V25.7319V25.5714V25.4109V25.2503V24.9293L49.4415 24.6886L49.5217 24.4478L49.602 24.207L49.6822 23.9662L49.8428 23.7255L50.0033 23.4847L50.1638 23.3242L50.3243 23.1637L50.4848 23.0032L50.7256 22.8426L50.9663 22.7624L51.2071 22.6821L51.4479 22.6019L51.6886 22.5216L51.9294 22.4414H52.0097H52.0899H52.1702H52.2505H52.3307H52.411H52.5715H52.732H52.8925H53.053H53.1333H53.2135H53.2938H53.374H53.5345H53.6951H53.8556H54.0161H54.1766H54.2569H54.3371V22.3611V22.2006V22.0401V21.8796V21.719L54.2569 21.5585L54.1766 21.398L54.0964 21.3178L53.9358 21.2375L53.7753 21.1573L53.6148 21.077H53.4543H53.2135H52.9728H52.732H52.4912H52.2505H52.0097H51.7689H51.5281H51.2874H51.0466H50.8861H50.7256L50.5651 21.1573L50.4045 21.2375L50.3243 21.3178L50.244 21.398L50.7256 19.6324L50.8861 19.5521L51.0466 19.4719L51.2071 19.3916H51.3676H51.5281H51.6886H51.8492H52.0097H52.2505H52.4912H52.732H52.9728H53.2135H53.4543H53.6951H53.9358H54.1766H54.4174L54.6582 19.4719L54.8989 19.5521L55.1397 19.6324L55.3805 19.7126L55.6212 19.8731L55.862 20.0337L56.0225 20.1942L56.183 20.3547L56.3435 20.5152L56.4238 20.756L56.5041 20.9967L56.5843 21.2375V21.4783V21.7993L55.9423 25.8121ZM54.1766 23.886L54.0964 23.8057H54.0161H53.9358H53.8556H53.7753H53.6951H53.6148H53.5345H53.4543H53.374H53.2938H53.2135H53.1333H53.053H52.9728H52.8925H52.8122H52.732L52.6517 23.886L52.5715 23.9662L52.4912 24.0465L52.411 24.1268L52.3307 24.207L52.2505 24.2873L52.1702 24.3675L52.0899 24.4478L52.0097 24.528L51.9294 24.6083L51.8492 24.6886V24.8491V25.0898V25.2503L51.9294 25.4109L52.0097 25.4911L52.0899 25.5714L52.2505 25.6516H52.411H52.5715H52.8122H53.053H53.2135L53.374 25.5714L53.5345 25.4911L53.6951 25.4109L53.8556 25.3306L53.9358 25.2503L54.0161 25.1701L54.0964 25.0898L54.1766 25.0096L54.2569 24.9293L54.3371 24.8491V24.7688V24.6886V24.6083V24.3675V24.1268V23.886H54.1766Z" fill="#3C3C3B"/>
<path fill-rule="evenodd" clip-rule="evenodd" d="M56.504 27.4174H58.5104L59.2327 23.2441L59.313 23.0835V22.923L59.3933 22.7625V22.602L59.4735 22.4415L59.5538 22.3612L59.7143 22.2007L59.7946 22.0402L59.955 21.96L60.0353 21.7994L60.2761 21.7192L60.4366 21.6389L60.5971 21.5587L60.8379 21.4784L61.1589 21.3982H61.3997H61.4799H61.5602L61.8812 19.5522H61.7207L61.4799 19.6325H61.3194L61.1589 19.7128H60.9984L60.8379 19.793L60.6774 19.8733L60.5971 19.9535L60.4366 20.114L60.2761 20.1943L60.1958 20.2746L60.1156 20.4351L59.955 20.5153L59.8748 20.6758L59.7143 20.8364L59.634 20.9166L59.8748 19.6325H57.8684L56.504 27.4174Z" fill="#3C3C3B"/>
<path fill-rule="evenodd" clip-rule="evenodd" d="M37.403 27.4174H39.4094L40.1317 23.2441V23.0835L40.2119 22.923V22.8428L40.2922 22.6823L40.3724 22.5217L40.4527 22.3612L40.533 22.281L40.6132 22.1205L40.6935 22.0402L40.854 21.8797L41.0145 21.7994L41.175 21.7192H41.4158L41.5763 21.6389L41.8171 21.5587H42.1381H42.2184H42.2986L42.3789 21.6389V21.5587V21.4784V21.3179L42.4591 21.2376V20.9969L42.5394 20.8364L42.6196 20.5956L42.6999 20.4351V20.2746L42.7801 20.114L42.8604 19.9535L42.9407 19.8733L43.0209 19.793L43.1012 19.7128V19.6325L43.0209 19.5522H42.9407H42.8604H42.7801H42.5394L42.3789 19.6325H42.1381L41.9776 19.7128H41.8171L41.6566 19.793L41.5763 19.8733L41.4158 19.9535L41.2553 20.0338L41.175 20.1943L41.0947 20.2746L40.9342 20.4351L40.854 20.5153L40.7737 20.6758L40.6132 20.8364L40.533 20.9166L40.7737 19.6325H38.687L37.403 27.4174Z" fill="#3C3C3B"/>
</svg>
