<svg width="82" height="26" viewBox="0 0 82 26" fill="none" xmlns="http://www.w3.org/2000/svg">
<path d="M59.3065 1.40296C58.0224 0.921418 56.016 0.359619 53.4478 0.359619C46.947 0.359619 42.4526 3.65015 42.3723 8.46556C42.3723 11.9969 45.5826 13.923 48.0706 15.1269C50.6388 16.3307 51.4414 17.1333 51.4414 18.1766C51.4414 19.7818 49.4349 20.5843 47.5088 20.5843C44.8603 20.5843 43.4959 20.1831 41.329 19.3002L40.4462 18.8989L39.5634 24.3564C41.0882 25.0787 43.8972 25.6405 46.8667 25.6405C53.7688 25.6405 58.1829 22.35 58.2632 17.2938C58.2632 14.4848 56.5778 12.3981 52.8057 10.6325C50.5585 9.5089 49.1139 8.70633 49.1139 7.58273C49.1139 6.5394 50.3178 5.49606 52.886 5.49606C55.0529 5.49606 56.5778 5.9776 57.7817 6.45914L58.3435 6.78017L59.3065 1.40296Z" fill="white"/>
<path d="M76.0802 0.760986H71.0241C69.4189 0.760986 68.2953 1.16227 67.573 2.76741L57.8619 25.2393H64.764C64.764 25.2393 65.8876 22.1896 66.1284 21.5475C66.8507 21.5475 73.5923 21.5475 74.4751 21.5475C74.6356 22.4303 75.2777 25.2393 75.2777 25.2393H81.3772L76.0802 0.760986ZM67.9743 16.5716C68.5361 15.127 70.5425 9.74975 70.5425 9.74975C70.5425 9.83001 71.1043 8.30513 71.4253 7.4223L71.9069 9.50898C71.9069 9.50898 73.191 15.3677 73.4318 16.5716H67.9743Z" fill="white"/>
<path d="M28.9695 25.3196L33.0626 0.760986H39.6436L35.5505 25.3196H28.9695Z" fill="white"/>
<path d="M23.512 0.760986L17.0915 17.4544L16.3692 14.0836C15.1653 10.151 11.4735 5.89742 7.30017 3.81075L13.1589 25.2393H20.061L30.3338 0.760986H23.512Z" fill="white"/>
<path d="M11.1525 0.760986H0.638855L0.558594 1.24253C8.74479 3.24895 14.2022 8.14462 16.4494 14.0836L14.122 2.84766C13.7207 1.32278 12.5971 0.841243 11.1525 0.760986Z" fill="white"/>
</svg>
