<svg width="86" height="30" viewBox="0 0 86 30" fill="none" xmlns="http://www.w3.org/2000/svg">
<path d="M58.6085 1.87789V3.96457H56.4415C55.639 3.96457 55.1574 4.12508 54.6759 4.52636C54.2746 4.92765 54.1141 5.73022 54.1141 6.6933C54.1141 7.73664 54.2746 8.45895 54.6759 8.94049C54.9969 9.26152 55.639 9.42203 56.2008 9.42203H57.1639L60.3741 1.87789H63.6646L67.3565 10.9469V1.87789H70.8075L74.7401 8.53921V1.87789H76.9873V11.5087H73.777L69.6037 4.28559V11.5087H65.1093L64.2265 9.34177H59.5716L58.6887 11.5087H56.1205C55.0772 11.5087 53.6325 11.2679 52.83 10.3851C52.1077 9.58254 51.7064 8.45895 51.7064 6.77355C51.7064 5.32893 51.8669 4.04482 52.9102 3.00149C53.5523 2.27917 54.7561 1.87789 56.281 1.87789H58.6085ZM60.5346 7.33535H63.5844L62.0595 3.56328L60.5346 7.33535ZM50.7433 1.87789V11.5087H48.4961V1.87789H50.7433ZM43.3597 1.87789C44.4833 1.87789 45.2858 1.87789 46.0081 2.27917C46.7304 2.76071 47.212 3.40277 47.212 4.44611C47.212 5.97099 46.2489 6.6933 45.6069 7.01433C46.0884 7.2551 46.4897 7.57612 46.6502 7.81689C46.9712 8.29844 47.0515 8.69972 47.0515 9.50229V11.4285H44.8043V10.2246C44.8043 9.6628 44.8845 8.86023 44.4833 8.37869C44.1622 8.05766 43.6004 7.97741 42.7979 7.97741H40.3902V11.5087H38.2232V1.87789H43.3597ZM40.3902 6.05124H43.1189C43.6005 6.05124 43.9215 6.05124 44.2425 5.81047C44.4833 5.64996 44.6438 5.32893 44.6438 4.92765C44.6438 4.52636 44.4833 4.20534 44.2425 4.04482C44.0017 3.88431 43.5202 3.88431 43.1189 3.88431H40.3902V6.05124ZM36.6181 1.87789V3.88431H31.4014V5.5697H36.5378V7.57612H31.4014V9.50229H36.6181V11.5087H29.1542V1.87789H36.6181ZM27.4688 1.87789V11.5087H25.2216V3.96457L21.9311 11.5087H20.0049L16.7144 3.96457V11.5087H12.22L11.3372 9.34177H6.68229L5.79948 11.5087H3.39178L7.40462 1.87789H10.6951L14.4672 10.9469V1.87789H18.0788L21.0483 8.37869L23.777 1.87789H27.4688ZM7.56512 7.33535H10.6149L9.08999 3.56328L7.56512 7.33535ZM65.4303 18.4911V20.4975H60.1334V22.2631H65.2698V24.1893H60.1334V26.1154H65.4303V28.1219H57.9664V18.4911H65.4303ZM82.9263 18.4911V20.5777H78.8332C78.4319 20.5777 78.1911 20.5777 77.9504 20.7382C77.7899 20.979 77.6294 21.1395 77.6294 21.4606C77.6294 21.7816 77.7898 22.0224 78.1109 22.1829C78.3516 22.2631 78.6727 22.3434 78.9937 22.3434H80.1976C81.4817 22.3434 82.2842 22.5841 82.7658 23.0657C83.1671 23.5472 83.4078 24.1893 83.4078 25.1524C83.4078 27.239 82.1237 28.2021 79.8765 28.2021H75.5427V26.1154H79.8765C80.2778 26.1154 80.5989 26.0352 80.7594 25.8747C80.9199 25.7142 81.0001 25.5537 81.0001 25.2326C81.0001 24.9919 80.8396 24.6708 80.7594 24.5103C80.5989 24.3498 80.3581 24.2695 79.9568 24.2695C77.8701 24.1893 75.3019 24.3498 75.3019 21.3C75.3019 19.9357 76.1847 18.4108 78.5122 18.4108H82.9263V18.4911ZM74.1783 18.4911V20.5777H70.0852C69.6839 20.5777 69.4432 20.5777 69.2024 20.7382C68.9616 20.979 68.8813 21.1395 68.8813 21.4606C68.8813 21.7816 69.0419 22.0224 69.3629 22.1829C69.6037 22.2631 69.9247 22.3434 70.2457 22.3434H71.4496C72.7337 22.3434 73.5363 22.5841 74.0178 23.0657C74.4191 23.5472 74.6598 24.1893 74.6598 25.1524C74.6598 27.239 73.3757 28.2021 71.1285 28.2021H66.7947V26.1154H71.1285C71.5298 26.1154 71.7706 26.0352 72.0114 25.8747C72.1719 25.7142 72.2521 25.5537 72.2521 25.2326C72.2521 24.9919 72.0916 24.6708 72.0114 24.5103C71.8509 24.3498 71.6101 24.2695 71.2088 24.2695C69.1221 24.1893 66.5539 24.3498 66.5539 21.3C66.5539 19.9357 67.3565 18.4108 69.7642 18.4108H74.1783V18.4911ZM52.9102 18.4911C54.0338 18.4911 54.9166 18.5713 55.639 18.9726C56.3613 19.3739 56.7626 20.0159 56.7626 21.1395C56.7626 22.6644 55.7995 23.467 55.1574 23.7077C55.7192 23.9485 56.1205 24.2695 56.281 24.5103C56.5218 24.9919 56.6021 25.3931 56.6021 26.276V28.1219H54.4351V26.918C54.4351 26.276 54.4351 25.4734 54.0338 24.9919C53.7128 24.6708 53.2313 24.5906 52.4287 24.5906H50.021V28.1219H47.7738V18.4911H52.9102ZM50.021 22.6644L52.7497 22.5841C53.151 22.5841 53.472 22.5842 53.7931 22.4236C54.0338 22.1829 54.2746 21.8618 54.2746 21.4606C54.2746 21.0593 54.1141 20.7382 53.7931 20.658C53.5523 20.4172 53.151 20.4172 52.7497 20.4172H50.021V22.6644ZM42.9584 18.4911C44.724 18.4911 46.6502 19.0529 46.6502 21.6211C46.6502 24.2695 44.724 24.8313 42.7979 24.8313H39.9889V28.0416H35.7353L33.0065 24.9116L30.1173 28.0416H21.289V18.4108H30.2778L33.0065 21.5408L35.8958 18.4108H42.9584V18.4911ZM37.822 27.3193V19.5344L34.3709 23.3065L37.822 27.3193ZM23.456 22.2631H28.3516V24.1893H23.456V26.1154H28.9937L31.5619 23.3065L29.074 20.4975H23.456V22.2631ZM39.9889 22.9854H42.9584C43.761 22.9854 44.3228 22.5039 44.3228 21.7013C44.3228 20.8988 43.761 20.4975 42.9584 20.4975H39.9889V22.9854ZM60.2939 0.192496H58.6085H56.4415C54.7561 0.192496 53.3918 0.59378 52.4287 1.31609V0.192496H50.7433H48.4961H46.8107V0.834551C45.6871 0.192496 44.6438 0.192496 43.3597 0.192496H38.3035H36.6181H29.1542H27.4688H23.777H22.6534L22.2521 1.23583L21.0483 4.20534L19.6839 1.23583L19.2024 0.272753H18.0788H14.4672H12.7818V1.95815V2.68046L12.22 1.31609L11.8187 0.272753H10.6951H7.40462H6.281L5.87972 1.31609L1.86688 10.9469L0.903809 13.2744H3.39178H5.79948H6.92307L7.32436 12.231L7.8059 11.1074H10.2136L10.6951 12.231L11.0964 13.2744H12.22H16.7144H18.3998V12.1508L18.4801 12.231L18.8813 13.2744H20.0049H21.9311H23.0547L23.456 12.231L23.5362 12.0705V13.1941H25.2216H27.4688H29.1542H36.5378H38.2232H40.3902H42.0756V11.5087V9.6628H42.7979C42.9584 9.6628 43.0387 9.6628 43.1189 9.6628C43.1189 9.82331 43.1189 9.90357 43.1189 9.98383C43.1189 10.0641 43.1189 10.1443 43.1189 10.2246V11.4285V13.1138H44.8043H47.0515H48.7369H50.7433H52.4287V11.9902C53.7931 12.9533 55.5587 13.1138 56.281 13.1138H58.8492H59.9729L60.3741 12.0705L60.7754 10.9469H63.1831L63.5844 12.0705L63.9857 13.1138H65.1093H69.6037H71.289V11.4285V10.3851L72.3324 12.231L72.8139 13.0336H73.777H76.9873H78.6727V11.3482V1.71738V0.0319824H76.9873H74.7401H73.0547V1.71738V2.27917L72.2521 0.914808L71.7706 0.11224H70.8075H67.3565H65.6711V1.79763V2.35943L65.1895 1.15558L64.7883 0.11224H63.8252H60.5346L60.2939 0.192496ZM55.96 5.73022C56.0403 5.73022 56.2008 5.64996 56.5218 5.64996H57.0836L56.2008 7.81689C56.1205 7.81689 56.0403 7.81689 55.96 7.81689C55.8798 7.65638 55.7995 7.33535 55.7995 6.77355C55.7995 6.1315 55.8798 5.81047 55.96 5.73022ZM67.1157 16.8057H65.4303H57.9664H56.281V17.4477C55.1574 16.8859 53.9536 16.8057 52.83 16.8057H47.7738H46.0884V17.528C45.2858 17.0464 44.1622 16.8057 42.9584 16.8057H35.8155H35.0932L34.6117 17.3675L33.0065 19.1331L31.4817 17.3675L31.0001 16.8057H30.1976H21.2088H19.5234V18.4911V28.1219V29.8073H21.2088H30.037H30.7593L31.2409 29.2455L32.846 27.4798L34.3709 29.2455L34.8524 29.8073H35.655H39.9889H41.6743V28.1219V26.597H42.7979C44.2425 26.597 45.2858 26.3562 46.0884 25.8747V28.1219V29.8073H47.7738H50.021H51.7064V28.1219V26.276H52.4287C52.5892 26.276 52.6695 26.276 52.7497 26.276C52.7497 26.5167 52.7497 26.7575 52.7497 26.918V28.1219V29.8073H54.4351H56.6021H58.2875H65.4303H67.1157H71.1285C72.1719 29.8073 73.0547 29.6467 73.8573 29.2455V29.8073H75.5427H79.8765C83.1671 29.8073 85.0932 28.0416 85.0932 25.0721C85.0932 23.9485 84.8525 22.9854 84.2104 22.1829H84.6117V20.4975V18.4108V16.7254H82.9263H78.4319C77.3886 16.7254 76.5058 16.9662 75.8637 17.3675V16.7254H74.1783H69.6839C68.6406 16.7254 67.7578 16.9662 67.1157 17.2872V16.8057Z" fill="white"/>
</svg>
