<svg width="234" height="100" viewBox="0 0 234 100" fill="none" xmlns="http://www.w3.org/2000/svg">
<path d="M130.68 34.0406C126.671 34.0406 122.736 34.0406 118.727 34.0406C117.124 34.0406 115.447 34.1134 113.844 34.0406C113.115 34.0406 112.896 34.2592 112.969 34.988C113.042 35.7898 112.969 36.5915 112.969 37.3203C112.969 39.5797 112.969 39.5797 115.302 39.6526C117.342 39.6526 117.78 40.017 117.852 42.0577C117.852 42.1306 117.852 42.2035 117.852 42.2764C117.852 47.8884 117.925 53.4275 117.925 59.0396C117.925 61.0803 117.78 63.0481 117.707 65.016C117.488 67.8584 115.885 69.389 113.115 69.5348C111.001 69.6076 109.325 68.8059 108.669 66.8381C111.147 67.5669 112.605 66.911 113.334 64.6516C113.99 62.6837 113.844 60.7159 112.824 58.8209C111.949 57.2904 110.418 56.4886 108.815 56.7802C107.43 57.0717 106.41 57.8734 105.754 59.1124C104.296 61.6634 104.296 64.36 104.806 67.1296C105.317 69.8992 106.774 72.0857 109.179 73.6162C110.783 74.6366 112.605 75.1468 114.427 75.2925C118.363 75.657 122.007 75.0739 124.558 71.6484C126.234 69.4619 126.817 66.8381 126.817 64.1414C126.89 57.6548 126.817 51.241 126.89 44.7544C126.89 43.5883 126.963 42.3493 127.036 41.1831C127.109 40.1628 127.473 39.7983 128.566 39.6526C129.222 39.5797 129.951 39.5797 130.68 39.5797C131.992 39.5797 131.992 39.5797 131.992 38.1949C131.992 37.1745 131.992 36.1542 131.992 35.1338C131.846 34.0406 131.846 34.0406 130.68 34.0406Z" fill="#E29C00"/>
<path d="M210.779 70.1178C210.779 69.389 210.487 69.2432 209.831 69.2432C207.062 69.2432 207.062 69.2432 207.062 66.4008C207.062 60.2785 207.062 54.0835 207.062 47.9613C207.062 47.1595 206.843 46.868 206.041 46.868C202.907 46.9409 199.7 46.9409 196.566 46.868C195.838 46.868 195.619 47.1595 195.619 47.8884C195.692 48.763 195.619 49.6376 195.619 50.5122C195.619 52.1885 195.619 52.1885 197.295 52.2614C198.972 52.2614 199.336 52.48 199.336 54.2292C199.409 57.9463 199.409 61.5904 199.336 65.3075C199.336 66.4008 198.972 67.5669 198.534 68.6601C198.024 69.8992 196.785 70.2636 195.473 70.1907C194.234 70.1178 193.505 69.3161 193.287 68.15C193.068 66.7652 192.849 65.3804 192.849 63.9956C192.777 58.6022 192.849 53.2817 192.849 47.8884C192.849 47.3782 192.777 47.0138 192.121 47.0138C188.914 47.0138 185.707 47.0138 182.573 47.0138C181.99 47.0138 181.844 47.2324 181.844 47.7426C181.844 48.6901 181.844 49.6376 181.844 50.6579C181.844 52.2614 181.844 52.2614 183.52 52.3343C184.905 52.4071 185.197 52.6987 185.27 54.0106C185.27 54.4479 185.27 54.8852 185.27 55.3954C185.342 60.0599 185.342 64.6516 185.415 69.3161C185.488 72.0857 187.164 75.001 190.882 75.5841C193.797 76.0214 197.077 75.1468 198.68 72.2314C198.826 71.9399 199.044 71.6484 199.263 71.3568C199.336 71.3568 199.409 71.3568 199.409 71.3568C199.409 72.2314 199.409 73.106 199.409 73.9077C199.409 74.5637 199.628 74.7095 200.283 74.7095C203.49 74.7095 206.697 74.7095 209.904 74.7095C210.487 74.7095 210.779 74.5637 210.779 73.9077C210.706 72.523 210.706 71.2839 210.779 70.1178Z" fill="#E29C00"/>
<path d="M175.357 57.9463C174.264 57.4361 173.098 56.9988 172.005 56.5615C170.839 56.0513 169.527 55.6869 168.361 55.1767C167.122 54.5936 166.83 53.8648 167.049 52.6987C167.195 51.8241 167.996 51.241 169.089 51.0952C172.296 50.5851 174.774 52.1156 175.503 55.2496C175.722 55.9055 175.941 56.1971 176.669 56.1242C177.325 56.0513 177.908 56.0513 178.491 56.1242C179.147 56.1971 179.366 55.9055 179.366 55.3225C179.293 52.9173 179.366 50.4393 179.366 48.0341C179.366 46.7951 179.366 46.7951 178.2 46.7951C177.18 46.7951 175.868 46.3578 175.795 48.1799C175.576 48.107 175.43 48.0341 175.285 47.9613C172.588 45.8476 169.454 45.5561 166.174 46.2121C162.967 46.868 160.489 48.6172 159.469 51.897C158.449 55.3225 158.74 58.6022 161.291 61.2989C162.822 62.9752 164.935 63.7769 167.049 64.5787C168.506 65.1617 170.037 65.6719 171.495 66.3279C172.515 66.7652 172.807 67.4211 172.734 68.4415C172.661 69.4619 171.859 70.1178 170.62 70.3365C167.923 70.7738 164.571 69.1703 163.696 66.6194C163.04 64.6516 161.874 64.2871 160.125 64.5058C160.052 64.5058 159.979 64.5058 159.906 64.5058C159.469 64.5058 159.25 64.6516 159.25 65.1617C159.25 68.0771 159.25 70.9924 159.25 73.9077C159.25 74.4179 159.469 74.6366 159.979 74.5637C160.708 74.5637 161.51 74.5637 162.238 74.5637C162.749 74.5637 162.967 74.345 163.04 73.9077C163.113 73.4704 163.186 73.0331 163.332 72.523C163.623 72.7416 163.915 72.9603 164.133 73.106C167.049 75.3654 170.401 76.0214 173.973 75.1468C177.544 74.2722 180.095 70.9924 180.459 66.838C180.751 62.3922 179.366 59.9141 175.357 57.9463Z" fill="#E29C00"/>
<path d="M233.518 63.5583C233.3 61.882 232.498 60.3514 231.04 59.4768C229.218 58.3836 227.323 57.509 225.355 56.6344C224.044 56.0513 222.659 55.614 221.347 55.031C220.618 54.6665 220.108 53.9377 220.254 52.9902C220.399 52.0427 220.982 51.3139 222.003 51.1681C225.137 50.5851 228.052 51.7512 228.781 55.3225C228.927 55.9056 229.145 56.1971 229.801 56.1971C230.457 56.1242 231.113 56.1242 231.769 56.1971C232.425 56.27 232.644 55.9784 232.644 55.3225C232.644 52.9902 232.644 50.658 232.644 48.3986C232.644 46.7951 232.862 46.9409 231.113 46.868C229.583 46.868 229.583 46.868 228.927 48.1799C228.781 48.107 228.562 48.0342 228.417 47.8884C225.72 45.7748 222.732 45.5561 219.525 46.2121C215.079 47.0867 212.382 50.2935 212.236 54.8123C212.164 57.6548 212.965 60.0599 215.225 61.9549C216.828 63.2668 218.65 63.9956 220.545 64.7245C222.003 65.2346 223.388 65.8177 224.772 66.4008C225.72 66.8381 226.084 67.5669 225.939 68.5144C225.793 69.4619 225.064 70.1178 223.898 70.2636C221.128 70.7009 217.703 69.0975 216.755 66.4008C216.099 64.6516 215.152 64.2143 213.548 64.4329C213.475 64.4329 213.403 64.4329 213.257 64.4329C212.601 64.36 212.309 64.5787 212.309 65.3075C212.382 68.0771 212.309 70.9195 212.309 73.6891C212.309 74.3451 212.528 74.5637 213.111 74.4908C213.767 74.4908 214.423 74.4908 215.079 74.4908C215.662 74.5637 216.026 74.3451 216.099 73.6891C216.099 73.3247 216.245 72.9603 216.391 72.523C216.609 72.6687 216.828 72.7416 216.901 72.8145C218.504 74.1993 220.399 75.001 222.586 75.2925C225.793 75.657 228.781 75.0739 231.04 72.5959C233.664 70.0449 234.029 66.8381 233.518 63.5583Z" fill="#E29C00"/>
<path d="M149.119 62.2464C147.079 62.2464 145.038 62.2464 142.997 62.2464C145.038 62.2464 147.079 62.2464 149.119 62.2464C151.16 62.2464 153.201 62.2464 155.242 62.2464C153.201 62.1735 151.16 62.2464 149.119 62.2464Z" fill="#E29C00"/>
<path d="M154.95 53.7191C154.148 51.0953 152.909 48.8359 150.504 47.3782C145.767 44.5358 139.717 45.9934 136.656 50.7308C135.053 53.2089 134.397 55.9056 134.105 58.8209C133.814 62.9753 134.543 66.8381 136.584 70.4822C139.717 76.0214 146.277 76.6045 150.504 73.9806C153.638 72.0128 154.804 68.8788 155.606 65.5262C155.752 64.9431 155.315 64.9431 154.95 64.9431C153.711 64.9431 152.472 65.016 151.233 64.9431C150.431 64.8702 149.921 65.016 149.994 66.0364C149.994 66.4737 149.775 66.8381 149.703 67.2754C149.192 68.9517 148.245 69.8263 146.641 69.9721C145.184 70.1178 143.945 69.389 143.143 67.8584C142.414 66.3279 142.196 64.7245 142.196 63.121C142.196 62.4651 142.414 62.2464 143.07 62.2464C145.111 62.2464 147.152 62.2464 149.192 62.2464C151.233 62.2464 153.274 62.2464 155.315 62.2464C156.043 62.2464 156.262 62.0278 156.189 61.2989C155.97 58.748 155.752 56.1971 154.95 53.7191ZM147.808 57.509C147.589 57.509 147.37 57.509 147.152 57.5819C147.006 57.5819 146.86 57.5819 146.714 57.5819C146.204 57.5819 145.767 57.5819 145.257 57.5819C144.455 57.5819 143.58 57.5819 142.779 57.5819C142.414 57.5819 142.123 57.509 142.196 56.9988C142.487 55.7598 142.633 54.4479 142.997 53.2089C143.289 52.1156 144.163 51.5326 145.33 51.5326C146.423 51.5326 147.443 52.1885 147.735 53.2818C148.026 54.5208 148.172 55.7598 148.245 56.9988C148.391 57.1446 148.026 57.509 147.808 57.509Z" fill="#E29C00"/>
<path d="M197.077 41.4746C197.222 41.256 197.441 41.0373 197.587 40.8187C198.972 39.1423 200.356 37.466 201.741 35.7897C202.178 35.2066 202.543 34.5507 202.106 33.9676C201.814 33.6032 201.085 33.3846 200.575 33.3846C199.044 33.3117 197.514 33.3846 195.983 33.3117C195.473 33.3117 195.182 33.5303 195.036 34.0405C194.817 35.1338 194.453 36.227 194.161 37.3203C193.651 39.1423 193.214 41.0373 192.704 42.9323C194.599 43.2238 196.202 43.2967 197.077 41.4746Z" fill="#E29C00"/>
<path d="M142.487 3.79395C142.706 7.14658 143.143 10.3534 143.507 13.4874C143.58 13.9976 143.799 14.2163 144.309 14.1434C144.819 14.0705 145.184 13.9976 145.038 13.3417C144.892 12.2484 144.746 11.228 144.674 10.1348C144.601 9.2602 144.455 8.3856 144.382 7.511C144.455 7.511 144.528 7.43811 144.601 7.43811C147.152 9.47885 149.703 11.5925 152.181 13.6332C152.253 13.5603 152.326 13.5603 152.399 13.4874C152.326 12.9773 152.253 12.4671 152.181 11.884C151.889 9.2602 151.597 6.6364 151.233 4.08548C151.16 3.64818 151.16 3.138 150.358 3.28376C149.63 3.42953 149.484 3.72106 149.63 4.37701C149.848 5.83468 149.994 7.21946 150.14 8.67713C150.213 9.11443 150.213 9.47885 150.286 9.91615C150.213 9.91615 150.14 9.98903 150.067 9.98903C147.589 7.9483 145.038 5.83468 142.487 3.79395Z" fill="black"/>
<path d="M175.357 12.6129C175.576 12.6129 175.722 12.6129 175.941 12.6129C176.305 12.6129 176.669 12.6129 177.034 12.6129C179.293 12.54 181.188 11.0094 181.625 8.75003C182.136 6.41776 181.042 4.01261 178.856 3.2109C177.69 2.7736 176.378 2.7736 175.139 2.62783C174.483 2.55495 174.191 2.7736 174.191 3.50243C174.118 5.98046 173.9 8.4585 173.754 10.9365C173.681 12.9773 173.608 12.54 175.357 12.6129ZM175.43 9.91617C175.503 8.23985 175.576 6.49065 175.722 4.81433C175.722 4.59568 176.013 4.23126 176.159 4.23126C177.763 4.30415 179.293 4.74145 179.876 6.56353C180.459 8.23985 179.803 9.98905 178.346 10.7908C177.835 11.0823 177.18 11.1552 176.596 11.301C175.43 11.1552 175.357 11.0823 175.43 9.91617Z" fill="black"/>
<path d="M201.158 14.7264C201.231 14.7264 201.304 14.7264 201.45 14.6536C201.741 13.4145 201.96 12.1755 202.251 10.9365C202.324 10.9365 202.397 10.9365 202.47 10.9365C202.98 12.1026 203.49 13.1959 204.001 14.362C204.438 15.3824 204.948 15.6739 206.187 15.3824C205.531 13.9247 204.875 12.5399 204.146 11.0094C204.511 10.8636 204.802 10.7907 205.021 10.7179C206.114 10.2077 206.697 9.33307 206.77 8.09405C206.843 7.0008 206.406 6.05332 205.458 5.61602C204.292 5.10583 203.053 4.88718 201.814 4.52277C201.668 4.96007 201.595 5.17872 201.523 5.39737C201.012 7.94829 200.502 10.5721 200.065 13.123C199.919 14.5078 199.919 14.5078 201.158 14.7264ZM202.98 7.0008C203.053 6.85503 203.418 6.5635 203.636 6.63638C204.292 6.70927 205.094 6.92792 205.167 7.72964C205.24 8.23982 205.094 8.89577 204.729 9.26019C204.146 9.84325 203.345 9.69749 202.543 9.40595C202.689 8.53135 202.835 7.72964 202.98 7.0008Z" fill="black"/>
<path d="M163.405 10.3534C164.571 10.1348 165.372 10.4992 165.81 11.6653C166.174 12.7586 166.611 12.7586 167.85 12.3213C166.101 8.96866 164.425 5.61602 162.603 2.04474C161.072 5.76179 159.688 9.26019 158.157 12.9772C158.959 12.8315 159.833 13.2688 160.052 12.3213C160.416 10.645 161.437 10.0619 163.04 10.3534C163.186 10.3534 163.259 10.3534 163.405 10.3534ZM161.51 8.82289C161.874 7.87541 162.238 6.92792 162.603 5.98044C162.676 5.98044 162.749 5.98044 162.822 5.90756C163.259 6.78216 163.696 7.65676 164.279 8.75001C163.332 8.82289 162.457 8.82289 161.51 8.82289Z" fill="black"/>
<path d="M221.42 18.4435C222.367 16.84 223.606 16.7672 225.064 17.496C225.137 17.496 225.21 17.496 225.21 17.496C226.813 17.9333 226.813 17.9333 227.032 19.6096C227.178 20.7029 227.396 20.8486 228.781 20.8486C228.271 17.1316 227.761 13.4145 227.178 9.77036C227.105 9.77036 227.032 9.77036 226.959 9.69748C224.481 12.5399 222.076 15.3095 219.598 18.1519C219.598 18.2248 219.671 18.2977 219.671 18.4435C220.254 18.4435 220.91 19.2452 221.42 18.4435ZM226.084 12.9772C226.303 14.1434 226.449 15.1637 226.594 16.3299C225.647 16.0383 224.845 15.8197 223.825 15.5281C224.627 14.6535 225.283 13.9247 226.084 12.9772Z" fill="black"/>
<path d="M131.19 5.76179C130.243 9.40596 129.222 13.0501 128.275 16.7672C129.076 16.5485 130.024 16.8401 130.097 15.8926C130.243 14.1434 131.19 13.5603 132.794 13.4874C132.939 13.4874 133.158 13.4874 133.304 13.4145C134.47 12.9772 135.126 13.4145 135.636 14.4349C136.219 15.5282 136.583 15.5282 137.823 14.8722C135.709 11.8111 133.668 8.75001 131.555 5.6889C131.409 5.6889 131.336 5.6889 131.19 5.76179ZM132.065 9.18731C132.648 9.98902 133.158 10.8636 133.814 11.8111C132.866 11.9569 131.992 12.1026 131.044 12.2484C131.336 11.1552 131.627 10.1348 131.846 9.18731C131.919 9.26019 131.992 9.18731 132.065 9.18731Z" fill="black"/>
<path d="M188.622 13.3417C189.934 13.4145 191.246 13.4874 192.631 13.5603C192.922 13.5603 193.141 13.4874 193.432 13.4874C193.651 12.0298 193.651 12.0298 192.339 12.0298C191.61 12.0298 190.954 12.0298 190.226 11.9569C190.007 11.9569 189.643 11.6653 189.643 11.5196C189.643 10.5721 189.788 9.62461 189.861 8.67712C190.444 8.75001 190.882 8.75001 191.319 8.82289C191.829 8.82289 192.266 8.82289 192.777 8.89577C193.36 8.96866 193.651 8.82289 193.724 8.16694C193.797 7.43811 193.432 7.36522 192.849 7.36522C192.485 7.36522 192.048 7.36522 191.683 7.29234C189.788 7.21945 189.788 7.14657 190.08 5.2516C190.08 5.17872 190.153 5.17872 190.153 5.03295C191.1 5.03295 192.048 5.03295 193.068 5.03295C193.578 5.03295 194.088 5.10584 194.088 4.30412C194.161 3.42952 193.651 3.5024 193.068 3.42952C191.756 3.35664 190.444 3.35664 189.205 3.21087C188.622 3.13799 188.549 3.42952 188.476 3.86682C188.331 6.70927 188.185 9.62461 188.039 12.5399C187.893 13.123 188.112 13.2688 188.622 13.3417Z" fill="black"/>
<path d="M116.978 11.6653C117.488 13.9247 117.998 16.1112 118.508 18.3706C118.654 18.9537 118.873 19.0265 119.383 18.8808C120.039 18.735 120.185 18.4435 120.039 17.8604C119.82 16.84 119.602 15.8197 119.31 14.7264C119.82 14.5806 120.258 14.5078 120.622 14.362C122.225 13.7789 123.027 12.2484 122.517 10.7178C122.08 9.11439 120.549 8.31268 118.946 8.67709C118.29 8.82286 117.707 8.96863 117.051 9.11439C116.541 9.18728 116.468 9.47881 116.541 9.91611C116.759 10.4992 116.832 11.0822 116.978 11.6653ZM118.654 10.3534C119.383 9.91611 120.622 10.2076 120.914 10.9365C121.351 11.8111 120.914 12.6857 119.966 13.0501C119.675 13.123 119.383 13.1959 119.019 13.2687C118.8 12.3941 118.581 11.5924 118.436 10.7907C118.436 10.6449 118.508 10.4263 118.654 10.3534Z" fill="black"/>
<path d="M215.443 7.29233C215.006 7.21944 214.642 7.07368 214.496 7.72963C213.767 10.7178 213.038 13.7061 212.309 16.6943C213.548 17.2773 213.767 17.2045 213.986 16.4756C214.714 13.7061 215.37 10.9365 216.099 8.09404C216.172 7.51098 215.881 7.43809 215.443 7.29233Z" fill="black"/>
<path d="M73.1028 14.5078C69.0213 9.55173 63.9194 6.05333 58.0159 3.72106C49.7072 0.441308 41.0341 -0.651942 32.2152 0.368425C23.1776 1.31591 15.1605 4.88719 8.23655 10.7907C2.84318 15.3824 0.0736084 21.0673 0.0736084 28.0641C0.0736084 30.2506 0.0736084 32.3642 0.0736084 34.5507H77.5486C77.5486 34.1134 77.5486 33.749 77.5486 33.3117C77.5486 30.615 77.6944 27.8455 77.4029 25.0759C76.9656 21.2131 75.5808 17.6418 73.1028 14.5078ZM66.3975 26.5336C62.6075 27.1166 58.7447 26.7522 54.8819 26.6064C51.3835 26.4607 47.958 26.3878 44.4596 26.3878C42.1273 26.3878 42.1273 26.4607 42.4917 28.7201C42.6375 29.4489 42.5646 30.1777 42.6375 30.9066C42.7104 31.4167 42.4189 31.6354 41.9087 31.5625C40.0137 31.5625 38.0458 31.4896 36.1509 31.5625C35.5678 31.5625 35.3492 31.271 35.422 30.7608C35.4949 29.7404 35.6407 28.7201 35.7865 27.6268C35.9322 26.5336 35.9322 26.4607 34.7661 26.4607C31.5592 26.5336 28.2795 26.7522 25.0726 26.7522C21.9386 26.8251 18.8046 26.8251 15.6707 26.7522C14.0672 26.6793 12.5367 26.3878 11.0061 26.1691C10.1315 26.0234 9.83998 25.2217 9.62133 24.5657C9.40268 23.8369 9.98575 23.3996 10.6417 23.1809C11.2248 22.9623 11.8078 22.9623 12.3909 22.7436C12.7553 22.5979 13.1926 22.3792 13.4841 22.0148C15.452 19.6825 17.6385 17.496 20.4081 16.0383C21.9386 15.2366 23.5421 14.7264 25.2184 14.2163C26.7489 13.779 27.2591 14.2163 27.6964 15.8197C27.6964 15.9655 27.8422 16.0383 28.0608 16.4028C28.3524 15.6739 28.4981 15.018 28.7897 14.5078C29.0083 14.0705 29.3727 13.7061 29.81 13.4874C30.3931 13.1959 31.049 13.123 31.705 13.0501C33.8186 12.9044 35.8593 12.8315 37.973 12.7586C39.212 12.7586 39.4306 13.0501 39.5035 14.2163C39.5035 14.4349 39.6493 14.5807 39.6493 14.7264C40.8154 14.2163 41.9087 13.6332 43.0748 13.1959C43.6579 12.9772 44.3867 12.7586 45.0427 12.9044C46.719 13.123 48.3953 13.4874 50.0716 13.8518C50.5089 13.9247 50.9462 14.362 51.092 14.7993C51.3106 15.3824 51.0191 15.8926 50.3631 16.1112C50.2174 16.1841 50.1445 16.5485 50.0716 16.7672C50.2903 16.7672 50.5089 16.8401 50.7276 16.7672C51.6022 16.4756 52.4768 16.0383 53.4242 15.8197C54.9548 15.4553 56.2667 16.1841 57.5057 16.913C59.9109 18.2248 61.9516 19.9741 63.6279 22.1606C64.2839 23.0352 65.0856 23.5453 66.1059 23.764C66.3975 23.8369 66.8348 23.9826 66.9806 24.2013C67.1992 24.7115 67.4179 25.2945 67.345 25.7318C67.345 26.1691 66.7619 26.4607 66.3975 26.5336Z" fill="#E29C00"/>
<path d="M0.0728834 36.6644C0 49.4918 0 62.3193 0 75.1468C0 76.3858 0 76.3858 1.23902 76.3858C13.775 76.3858 26.238 76.3858 38.774 76.3858C51.0912 76.3858 63.4814 76.3858 75.7987 76.3858C77.475 76.3858 77.475 76.3858 77.475 74.7095C77.475 62.0278 77.475 49.3461 77.475 36.7373H0.0728834V36.6644ZM12.1715 73.3976C12.0258 75.2197 12.1715 74.9281 10.4223 74.9281C9.76637 74.9281 9.11042 74.9281 8.23582 74.9281C9.76637 72.3043 11.1512 69.8992 12.5359 67.494C12.6817 67.5669 12.7546 67.5669 12.8275 67.6398C12.6088 69.3161 12.4631 70.9924 12.2444 72.7416C12.2444 72.9603 12.2444 73.1789 12.1715 73.3976ZM15.6699 75.001C14.7953 74.9281 13.9207 75.001 12.8275 75.001C14.0665 71.0653 15.3055 67.3483 16.4716 63.6312C16.5445 63.6312 16.6174 63.6312 16.7632 63.7041C16.7632 63.9228 16.8361 64.1414 16.8361 64.3601C16.7632 67.6398 16.6903 70.8467 16.6174 74.0535C16.6174 74.7095 16.3988 75.001 15.6699 75.001ZM19.4599 74.9281C18.5853 74.9281 17.7107 74.9281 16.6903 74.9281C18.2208 68.5873 19.7514 62.3922 21.2091 56.1971C21.3548 56.1971 21.4277 56.1971 21.5006 56.27C21.5006 56.4886 21.5735 56.7073 21.5735 56.9259C21.2819 62.538 20.9904 68.0771 20.6989 73.6891C20.6989 74.9281 20.6989 74.9281 19.4599 74.9281ZM23.8329 75.001C23.2498 74.9281 22.5938 74.9281 21.9379 75.001C21.2819 75.001 21.0633 74.7824 21.2091 74.1264C21.7192 71.5026 22.1565 68.8059 22.5938 66.1093C23.3956 61.5905 24.1973 56.9988 24.999 52.4072C25.0719 51.9699 25.2176 51.4597 25.2905 51.0224C25.3634 51.0224 25.4363 51.0224 25.5092 51.0224C25.5092 51.897 25.5092 52.7716 25.5092 53.6462C25.2905 60.3515 24.999 67.1296 24.7803 73.9078C24.7803 74.7824 24.5617 75.0739 23.8329 75.001ZM29.0076 74.1264C29.0076 74.7824 28.7889 75.001 28.133 74.9281C27.477 74.9281 26.8211 74.8553 26.1651 74.9281C25.4363 75.001 25.2905 74.6366 25.3634 73.9807C25.6549 71.6484 25.9465 69.3161 26.238 66.9839C26.894 61.9549 27.5499 56.9259 28.133 51.897C28.4245 49.7834 28.6432 47.7426 28.9347 45.629C28.9347 45.5561 29.0076 45.4104 29.0805 45.3375C29.1534 45.3375 29.2262 45.3375 29.2991 45.3375C29.2991 45.5561 29.372 45.8477 29.372 46.0663C29.2262 55.4683 29.0805 64.7973 29.0076 74.1264ZM33.3077 73.8349C33.3077 74.6366 33.0891 75.0739 32.2145 74.9281C31.6314 74.8553 30.9754 74.8553 30.3195 74.9281C29.6635 75.001 29.372 74.7824 29.5178 74.0535C29.7364 72.2315 29.9551 70.3365 30.1737 68.5144C30.611 64.8702 31.0483 61.2261 31.4856 57.5819C32.0687 52.7716 32.5789 48.0342 33.1619 43.2239C33.2348 42.4222 33.3077 41.6933 33.4535 40.8916C33.5264 40.8916 33.6721 40.8916 33.745 40.8916C33.745 41.1103 33.8179 41.4018 33.8179 41.6204C33.5992 49.8563 33.5264 58.0921 33.4535 66.3279C33.3806 68.8788 33.3077 71.3569 33.3077 73.8349ZM37.8265 74.0535C37.8265 74.7824 37.6078 75.0739 36.879 75.001C36.0044 74.9281 35.2027 75.001 34.3281 75.001C33.8179 75.001 33.5264 74.8553 33.5992 74.2722C34.3281 68.15 35.0569 62.1007 35.7129 56.0513C36.2959 50.7309 36.879 45.4104 37.4621 40.0899C37.5349 39.7984 37.6078 39.5797 37.6078 39.2882C37.6807 39.2882 37.7536 39.2882 37.8265 39.2882C37.8265 39.5797 37.8994 39.7984 37.8994 40.0899C37.8994 51.3139 37.8265 62.6837 37.8265 74.0535ZM43.147 74.9281C42.3452 74.9281 41.4706 74.8553 40.6689 74.9281C39.8672 75.001 39.6486 74.7095 39.6486 73.9078C39.6486 70.7009 39.6486 67.494 39.6486 64.2872C39.6486 56.1242 39.5757 48.0342 39.5757 39.8712C39.5757 39.5797 39.5757 39.3611 39.6486 39.1424C39.7214 39.1424 39.7943 39.1424 39.8672 39.1424C39.9401 39.2882 40.013 39.5068 40.013 39.6526C40.596 44.7544 41.1791 49.9291 41.7622 55.031C42.2724 59.6226 42.7825 64.1414 43.3656 68.7331C43.5843 70.5551 43.73 72.3043 44.0216 74.1264C44.0216 74.7824 43.73 75.001 43.147 74.9281ZM44.5317 74.9281C44.386 74.9281 44.1673 74.418 44.1673 74.1993C44.0944 68.8059 44.0216 63.3397 43.9487 57.9463C43.8758 52.6258 43.8029 47.3782 43.73 42.1306C43.73 41.6933 43.73 41.3289 43.73 40.8916C43.8029 40.8916 43.9487 40.8916 44.0944 40.8916C45.4063 52.1885 46.6454 63.4855 48.0301 75.001C46.7911 74.9281 45.625 75.001 44.5317 74.9281ZM51.1641 74.9281C50.2895 74.8553 49.1963 75.1468 48.6861 74.7095C48.2488 74.3451 48.4674 73.1061 48.4674 72.3043C48.3217 63.6312 48.2488 55.031 48.103 46.3579C48.103 46.0663 48.103 45.7748 48.103 45.4833C48.1759 45.4833 48.2488 45.4833 48.3946 45.4104C48.4674 45.8477 48.6132 46.285 48.6132 46.7223C49.2692 52.1885 49.998 57.6548 50.6539 63.121C51.0912 66.6923 51.5285 70.2636 52.0387 73.8349C52.1845 74.7095 52.0387 75.0739 51.1641 74.9281ZM55.3914 74.9281C54.8083 74.9281 54.2252 74.9281 53.6422 74.9281C52.9862 75.001 52.7676 74.7824 52.6947 74.0535C52.6218 70.4094 52.4031 66.8381 52.2574 63.1939C52.1116 59.3311 51.9658 55.5412 51.8201 51.6783C51.8201 51.4597 51.8201 51.1682 51.8201 50.8766C51.893 50.8766 52.0387 50.8766 52.1116 50.8766C52.2574 51.6783 52.476 52.4072 52.6218 53.136C53.8608 59.9871 55.0269 66.8381 56.266 73.6891C56.4117 74.8553 56.3388 74.9281 55.3914 74.9281ZM57.2134 74.9281C57.0677 74.9281 56.7761 74.418 56.7761 74.1264C56.6304 71.284 56.4846 68.5144 56.3388 65.672C56.1931 62.7566 56.0473 59.8413 55.9015 56.9259C55.9015 56.7073 55.9016 56.5615 55.9744 56.3429C56.0473 56.3429 56.1931 56.3429 56.266 56.27C57.7965 62.4651 59.2542 68.5873 60.7847 74.9281C59.4728 74.9281 58.3067 75.001 57.2134 74.9281ZM61.3678 74.9281C61.222 74.9281 61.0034 74.6366 61.0034 74.4908C60.9305 70.9924 60.8576 67.4212 60.7119 63.9228C60.7119 63.8499 60.7847 63.777 61.0034 63.4855C62.2424 67.3483 63.4814 71.0653 64.7204 74.9281C63.4085 74.9281 62.3882 74.9281 61.3678 74.9281ZM65.8866 74.9281C65.7408 74.9281 65.4493 74.7095 65.4493 74.5637C65.1577 72.3043 64.9391 70.045 64.6476 67.7856C64.6476 67.7127 64.7204 67.7127 64.8662 67.494C66.3239 69.9721 67.7087 72.3772 69.2392 74.9281C67.9273 74.9281 66.9069 74.9281 65.8866 74.9281Z" fill="#A41B1A"/>
<path d="M2.91534 98.3239C3.20687 98.3967 4.08147 98.4696 5.46625 98.6883L5.39337 99.8544H0.145767L0 98.6154L1.16613 98.3967V89.0677L0 88.9948V87.6829H3.71705C5.32049 87.6829 6.5595 88.0473 7.4341 88.7761C8.16294 89.4321 8.60024 90.3796 8.60024 91.5457C8.60024 92.9305 8.16294 93.9509 7.21545 94.6068C6.41374 95.1899 5.2476 95.4814 3.71705 95.4814H2.91534V98.3239ZM6.70527 91.5457C6.70527 89.9423 5.61202 89.2134 3.4984 89.2134H2.91534V94.0966H3.64417C4.73742 94.0966 5.53914 93.878 6.04932 93.3678C6.48662 92.8576 6.70527 92.2745 6.70527 91.5457Z" fill="black"/>
<path d="M14.2123 99.1254C13.7021 99.6356 13.0461 99.9271 12.2444 99.9271C11.4427 99.9271 10.7867 99.7085 10.2766 99.2712C9.76638 98.8339 9.54773 98.3237 9.54773 97.6678C9.54773 97.0118 9.6935 96.5745 9.91215 96.2101C10.1308 95.8457 10.4952 95.5541 10.9325 95.3355C11.6613 94.9711 12.6817 94.7524 14.0665 94.7524V93.5134C14.0665 93.2948 13.9936 93.0761 13.775 92.8575C13.5563 92.6388 13.1919 92.5659 12.7546 92.5659C12.3173 92.5659 12.0258 92.6388 11.8071 92.8575L11.4427 94.0236L9.62061 93.4405C9.91215 92.493 10.5681 91.8371 11.5885 91.4727C11.9529 91.3269 12.3902 91.3269 12.8275 91.3269C13.775 91.3269 14.4309 91.5455 14.9411 91.9829C15.4513 92.4202 15.6699 93.0761 15.6699 93.8049V98.3237C15.6699 98.5424 15.7428 98.6881 15.8886 98.6881C15.9615 98.6881 16.1072 98.6152 16.253 98.5424L16.6174 99.4898C16.253 99.7814 15.8157 99.9271 15.3784 99.9271C14.8682 99.9271 14.4309 99.6356 14.2123 99.1254ZM11.7342 98.3966C11.88 98.4695 12.0258 98.5424 12.1715 98.5424C12.3173 98.5424 12.4631 98.6152 12.6817 98.6152C12.8275 98.6152 13.0461 98.5424 13.1919 98.4695C13.4105 98.3966 13.5563 98.3237 13.6292 98.1779C13.8478 97.9593 14.0665 97.7406 14.1394 97.4491V95.9186C13.3377 95.9186 12.7546 95.9914 12.3902 96.1372C12.0258 96.283 11.7342 96.4287 11.5156 96.6474C11.2969 96.866 11.224 97.0847 11.224 97.3762C11.224 97.6678 11.2969 97.8864 11.3698 98.0322C11.5156 98.2508 11.5885 98.3237 11.7342 98.3966Z" fill="black"/>
<path d="M20.2616 91.9099C20.8447 91.4726 21.5006 91.254 22.3752 91.254C23.6143 91.254 24.416 91.6913 24.7804 92.5659C24.9262 92.8574 24.999 93.2219 24.999 93.732V98.6152L26.0923 98.9068V99.8542H22.5939L22.3752 98.9068L23.4685 98.6881V94.0236C23.4685 93.5134 23.3227 93.149 23.1041 92.9303C22.8854 92.7117 22.521 92.6388 22.1566 92.6388C21.7922 92.6388 21.4278 92.7117 21.0633 92.8574C20.6989 93.0032 20.4803 93.149 20.3345 93.2947V98.6152L21.3549 98.9068V99.8542H17.8565L17.6378 98.9068L18.7311 98.6881V92.7117L17.7836 92.7846L17.6378 91.6913C17.7836 91.6913 18.0022 91.6184 18.148 91.6184C18.3667 91.5455 18.5124 91.5455 18.7311 91.4727C18.9497 91.4727 19.0955 91.3998 19.3141 91.3998C19.5328 91.3998 19.6786 91.3269 19.7514 91.3269L20.2616 91.9099Z" fill="black"/>
<path d="M31.7042 99.1254C31.194 99.6356 30.5381 99.9271 29.7364 99.9271C28.9346 99.9271 28.2787 99.7085 27.7685 99.2712C27.2583 98.8339 27.0397 98.3237 27.0397 97.6678C27.0397 97.0118 27.1854 96.5745 27.4041 96.2101C27.6227 95.8457 27.9872 95.5541 28.4245 95.3355C29.1533 94.9711 30.1737 94.7524 31.5584 94.7524V93.5134C31.5584 93.2948 31.4856 93.0761 31.2669 92.8575C31.0483 92.6388 30.6838 92.5659 30.2465 92.5659C29.8092 92.5659 29.5177 92.6388 29.2991 92.8575L28.9346 94.0236L27.1126 93.4405C27.4041 92.493 28.06 91.8371 29.0804 91.4727C29.4448 91.3269 29.8821 91.3269 30.3194 91.3269C31.2669 91.3269 31.9229 91.5455 32.433 91.9829C32.9432 92.4202 33.1619 93.0761 33.1619 93.8049V98.3237C33.1619 98.5424 33.2348 98.6881 33.3805 98.6881C33.4534 98.6881 33.5992 98.6152 33.7449 98.5424L34.1094 99.4898C33.7449 99.7814 33.3076 99.9271 32.8703 99.9271C32.3602 99.9271 31.9229 99.6356 31.7042 99.1254ZM29.2262 98.3966C29.3719 98.4695 29.5177 98.5424 29.6635 98.5424C29.8092 98.5424 29.955 98.6152 30.1737 98.6152C30.3194 98.6152 30.5381 98.5424 30.6838 98.4695C30.9025 98.3966 31.0483 98.3237 31.1211 98.1779C31.3398 97.9593 31.5584 97.7406 31.6313 97.4491V95.9186C30.8296 95.9186 30.3194 95.9914 29.8821 96.1372C29.5177 96.283 29.2262 96.4287 29.0075 96.6474C28.7889 96.866 28.716 97.0847 28.716 97.3762C28.716 97.6678 28.7889 97.8864 28.8618 98.0322C29.0075 98.2508 29.0804 98.3237 29.2262 98.3966Z" fill="black"/>
<path d="M40.5231 99.3441C39.9401 99.7085 39.357 99.9271 38.7739 99.9271C38.1909 99.9271 37.6078 99.8543 37.2434 99.6356C36.8061 99.417 36.4417 99.1254 36.1501 98.761C35.4942 97.9593 35.2026 96.9389 35.2026 95.6999C35.2026 94.0965 35.6399 92.9303 36.5145 92.1286C37.1705 91.5456 38.0451 91.254 38.9926 91.254C39.5028 91.254 39.9401 91.3269 40.3774 91.5455V88.2658L39.357 88.3387L39.2112 87.2454L41.3977 86.881L41.9808 87.4641V98.2508C41.9808 98.4695 42.0537 98.6152 42.1994 98.6152C42.2723 98.6152 42.4181 98.5424 42.5639 98.4695L42.9283 99.417C42.5639 99.7085 42.1266 99.8543 41.6164 99.8543C41.1062 99.9271 40.7418 99.7085 40.5231 99.3441ZM40.3774 98.0322V93.0761C40.3045 93.0032 40.0858 92.8575 39.8672 92.7846C39.6485 92.7117 39.357 92.6388 39.0655 92.6388C38.7739 92.6388 38.5553 92.7117 38.3366 92.7846C38.118 92.8575 37.8264 93.0032 37.6807 93.2948C37.1705 93.8049 36.9518 94.6067 36.9518 95.6999C36.9518 96.7203 37.1705 97.4491 37.6078 98.0322C37.9722 98.4695 38.4824 98.6881 39.0655 98.6881C39.5028 98.6152 40.0129 98.3966 40.3774 98.0322Z" fill="black"/>
<path d="M50.5081 93.5863C50.5081 93.9507 50.4352 94.3151 50.2895 94.6796C50.1437 95.044 49.9251 95.3355 49.5606 95.627C48.7589 96.283 47.447 96.5745 45.6249 96.6474C45.8436 97.5949 46.2809 98.178 47.0826 98.4695C47.3741 98.5424 47.6657 98.6153 47.9572 98.6153C48.2487 98.6153 48.5403 98.6153 48.7589 98.5424C48.9776 98.4695 49.1962 98.3966 49.342 98.3237C49.6335 98.178 49.8522 98.0322 49.9979 97.8864L50.3624 99.1254C50.2166 99.2712 49.9979 99.417 49.7064 99.4899C48.5403 100 47.3741 100 46.208 99.6356C45.1876 99.2712 44.4588 98.5424 44.0944 97.522C43.8757 97.0118 43.8029 96.3559 43.8029 95.627C43.8029 94.8982 43.8757 94.3151 44.0944 93.7321C44.313 93.2219 44.6046 92.7117 44.969 92.3473C45.6978 91.6185 46.5724 91.1812 47.5928 91.1812C48.3945 91.1812 49.0505 91.3998 49.5606 91.7642C50.2166 92.3473 50.5081 92.9303 50.5081 93.5863ZM48.8318 93.7321C48.8318 93.3677 48.7589 93.149 48.5403 92.9304C48.3945 92.7117 48.103 92.6388 47.7386 92.6388C47.3741 92.6388 47.1555 92.7117 46.864 92.7846C46.6453 92.8575 46.4267 93.0761 46.208 93.2948C45.7707 93.805 45.5521 94.4609 45.4792 95.3355C46.3538 95.3355 47.0097 95.2626 47.3741 95.1169C47.8114 94.9711 48.103 94.8253 48.3216 94.6067C48.686 94.388 48.8318 94.0965 48.8318 93.7321Z" fill="black"/>
<path d="M54.2981 92.1286C54.7354 91.6184 55.3914 91.3269 56.1202 91.3269C56.6304 91.3269 57.0677 91.4727 57.4321 91.6913C57.7965 91.9829 58.0881 92.2744 58.2338 92.6388L56.4846 93.5134L55.9016 92.6388C55.4643 92.6388 55.1727 92.7846 54.8083 93.149C54.5168 93.5134 54.2981 93.9507 54.2981 94.5338V98.3237C54.2981 98.3966 54.371 98.3966 54.5897 98.4695L56.5575 98.9068V99.8543H51.8201L51.6014 98.9068L52.6947 98.6881V92.7117H51.7472L51.6014 91.6913C52.2574 91.6184 52.9862 91.4727 53.7151 91.3269L54.2981 92.1286Z" fill="black"/>
<path d="M58.8169 95.5541C58.8169 94.8982 58.8898 94.2422 59.1084 93.7321C59.3271 93.2219 59.6186 92.7846 59.9101 92.4202C60.5661 91.6913 61.4407 91.3269 62.534 91.3269C63.6272 91.3269 64.5018 91.6913 65.2306 92.493C65.9595 93.2948 66.3239 94.3151 66.3239 95.627C66.3239 97.0118 65.9595 98.1051 65.1578 98.8339C64.4289 99.5627 63.6272 100 62.534 100C61.4407 100 60.5661 99.6356 59.8373 98.8339C59.1813 97.9593 58.8169 96.866 58.8169 95.5541ZM60.4932 95.6999C60.4932 96.6474 60.7119 97.3762 61.0763 97.8864C61.4407 98.3966 61.9509 98.6152 62.534 98.6152C63.117 98.6152 63.6272 98.3966 64.0645 97.8864C64.4289 97.3762 64.6476 96.6474 64.6476 95.6999C64.6476 94.7524 64.4289 93.9507 64.0645 93.4405C63.7001 92.8575 63.1899 92.6388 62.534 92.6388C61.878 92.6388 61.3678 92.9303 61.0034 93.5134C60.7119 94.0236 60.4932 94.7524 60.4932 95.6999Z" fill="black"/>
<path d="M70.5511 91.254C70.9155 91.254 71.28 91.3269 71.5715 91.3998C71.863 91.4727 72.1546 91.6184 72.3732 91.8371C72.8105 92.1286 73.1749 92.5659 73.3936 93.0032L71.5715 93.6592L71.1342 92.7846C70.9155 92.6388 70.624 92.6388 70.4054 92.6388C70.1138 92.6388 69.8952 92.7117 69.6765 92.8574C69.4579 93.0032 69.3121 93.2218 69.3121 93.5863C69.3121 93.8778 69.4579 94.1693 69.7494 94.3151C70.0409 94.5337 70.4782 94.6795 70.9884 94.8982C71.4986 95.1168 71.9359 95.3355 72.1546 95.4812C72.4461 95.6999 72.6647 95.8457 72.8105 96.0643C73.102 96.4287 73.2478 96.866 73.2478 97.3762C73.2478 97.8864 73.1749 98.2508 72.9563 98.5423C72.8105 98.8339 72.519 99.1254 72.3003 99.2712C71.7173 99.6356 71.0613 99.8542 70.2596 99.8542C69.6036 99.8542 68.9477 99.7085 68.3646 99.2712C67.7816 98.9068 67.4171 98.4694 67.1985 97.9593L69.0206 97.3033L69.4579 98.3237C69.7494 98.4694 69.9681 98.4695 70.1867 98.4695C70.4054 98.4695 70.624 98.4695 70.7698 98.3966C70.9155 98.3966 71.0613 98.3237 71.1342 98.2508C71.4257 98.105 71.5715 97.8135 71.5715 97.4491C71.5715 97.0118 71.28 96.6474 70.7698 96.4287C70.2596 96.2101 69.7494 95.9914 69.385 95.7728C69.0206 95.5541 68.6562 95.4084 68.4375 95.1897C67.9273 94.7524 67.6358 94.1693 67.6358 93.4405C67.6358 92.7117 67.9273 92.1286 68.5104 91.6913C69.1663 91.4727 69.8223 91.254 70.5511 91.254Z" fill="black"/>
<path d="M78.2767 98.761L79.2242 98.4695L82.7955 87.6827H84.4718L88.2618 98.4695L89.0635 98.761L88.8448 99.8543H84.6905V98.8339L86.221 98.4695L85.3464 95.8457H81.6294L80.8277 98.4695L82.3582 98.8339V99.9271H78.5683L78.2767 98.761ZM82.1395 94.3151H84.982L83.5243 89.8692L82.1395 94.3151Z" fill="black"/>
<path d="M92.1975 92.1286C92.6348 91.6184 93.2908 91.3269 94.0196 91.3269C94.5298 91.3269 94.9671 91.4727 95.3315 91.6913C95.6959 91.9829 95.9875 92.2744 96.1332 92.6388L94.384 93.5134L93.8739 92.6388C93.4366 92.6388 93.145 92.7846 92.7806 93.149C92.4162 93.5134 92.2704 93.9507 92.2704 94.5338V98.3237C92.2704 98.3966 92.3433 98.3966 92.5619 98.4695L94.5298 98.9068V99.8543H89.7924L89.5737 98.9068L90.667 98.6881V92.7117H89.7195L89.5737 91.6913C90.2297 91.6184 90.9585 91.4727 91.6873 91.3269L92.1975 92.1286Z" fill="black"/>
<path d="M101.381 98.105C101.381 98.1779 101.527 98.5423 101.745 99.2711C101.599 99.4169 101.308 99.5627 101.016 99.7084C100.725 99.8542 100.288 99.9271 99.7773 99.9271C99.2671 99.9271 98.8298 99.7813 98.4654 99.4898C98.101 99.1983 97.9552 98.6881 97.9552 97.9592V92.5659H96.4976L96.2789 91.3997L96.4247 91.254H98.0281V88.3386L99.4129 87.9742L99.4858 88.2657V91.254H101.308C101.381 91.254 101.381 91.254 101.381 91.3269V92.5659H99.4858V97.6677C99.4858 98.0321 99.5587 98.3237 99.6316 98.3965C99.7773 98.5423 99.8502 98.5423 100.069 98.5423C100.215 98.5423 100.36 98.5423 100.506 98.4694C100.652 98.4694 100.725 98.3965 100.871 98.3236C101.089 98.2508 101.235 98.1779 101.381 98.105Z" fill="black"/>
<path d="M109.179 93.5863C109.179 93.9507 109.106 94.3151 108.961 94.6796C108.815 95.044 108.596 95.3355 108.232 95.627C107.43 96.283 106.118 96.5745 104.296 96.6474C104.515 97.5949 104.952 98.178 105.754 98.4695C106.045 98.5424 106.337 98.6153 106.628 98.6153C106.92 98.6153 107.211 98.6153 107.43 98.5424C107.649 98.4695 107.867 98.3966 108.013 98.3237C108.305 98.178 108.523 98.0322 108.669 97.8864L109.034 99.1254C108.888 99.2712 108.669 99.417 108.378 99.4899C107.211 100 106.045 100 104.879 99.6356C103.859 99.2712 103.13 98.5424 102.766 97.522C102.547 97.0118 102.474 96.3559 102.474 95.627C102.474 94.8982 102.547 94.3151 102.766 93.7321C102.984 93.2219 103.276 92.7117 103.64 92.3473C104.369 91.6185 105.244 91.1812 106.264 91.1812C107.066 91.1812 107.722 91.3998 108.232 91.7642C108.888 92.3473 109.179 92.9303 109.179 93.5863ZM107.503 93.7321C107.503 93.3677 107.43 93.149 107.211 92.9304C107.066 92.7117 106.774 92.6388 106.41 92.6388C106.045 92.6388 105.754 92.7117 105.535 92.7846C105.316 92.8575 105.098 93.0761 104.879 93.2948C104.442 93.805 104.223 94.4609 104.15 95.3355C105.025 95.3355 105.681 95.2626 106.045 95.1169C106.483 94.9711 106.774 94.8253 106.993 94.6067C107.357 94.388 107.503 94.0965 107.503 93.7321Z" fill="black"/>
<path d="M113.479 91.254C113.844 91.254 114.208 91.3269 114.5 91.3998C114.791 91.4727 115.083 91.6184 115.301 91.8371C115.739 92.1286 116.103 92.5659 116.322 93.0032L114.5 93.6592L114.062 92.7846C113.844 92.6388 113.552 92.6388 113.334 92.6388C113.042 92.6388 112.823 92.7117 112.605 92.8574C112.386 93.0032 112.24 93.2218 112.24 93.5863C112.24 93.8778 112.386 94.1693 112.678 94.3151C112.969 94.5337 113.406 94.6795 113.917 94.8982C114.427 95.1168 114.864 95.3355 115.083 95.4812C115.374 95.6999 115.593 95.8457 115.739 96.0643C116.03 96.4287 116.176 96.866 116.176 97.3762C116.176 97.8864 116.103 98.2508 115.884 98.5423C115.739 98.8339 115.447 99.1254 115.229 99.2712C114.645 99.6356 113.99 99.8542 113.188 99.8542C112.532 99.8542 111.876 99.7085 111.293 99.2712C110.71 98.9068 110.345 98.4694 110.127 97.9593L111.949 97.3033L112.386 98.3237C112.678 98.4694 112.896 98.4695 113.115 98.4695C113.334 98.4695 113.552 98.4695 113.698 98.3966C113.844 98.3966 113.99 98.3237 114.062 98.2508C114.354 98.105 114.5 97.8135 114.5 97.4491C114.5 97.0118 114.208 96.6474 113.698 96.4287C113.188 96.2101 112.678 95.9914 112.313 95.7728C111.949 95.5541 111.584 95.4084 111.366 95.1897C110.856 94.7524 110.564 94.1693 110.564 93.4405C110.564 92.7117 110.856 92.1286 111.439 91.6913C112.022 91.4727 112.678 91.254 113.479 91.254Z" fill="black"/>
<path d="M122.225 99.1254C121.715 99.6356 121.059 99.9271 120.258 99.9271C119.456 99.9271 118.8 99.7085 118.29 99.2712C117.78 98.8339 117.561 98.3237 117.561 97.6678C117.561 97.0118 117.707 96.5745 117.925 96.2101C118.144 95.8457 118.508 95.5541 118.946 95.3355C119.675 94.9711 120.695 94.7524 122.08 94.7524V93.5134C122.08 93.2948 121.934 93.0761 121.788 92.8575C121.57 92.6388 121.205 92.5659 120.768 92.5659C120.33 92.5659 120.039 92.6388 119.82 92.8575L119.456 94.0236L117.634 93.4405C117.925 92.493 118.581 91.8371 119.602 91.4727C119.966 91.3269 120.403 91.3269 120.841 91.3269C121.788 91.3269 122.444 91.5455 122.954 91.9829C123.464 92.4202 123.683 93.0761 123.683 93.8049V98.3237C123.683 98.5424 123.756 98.6881 123.902 98.6881C123.975 98.6881 124.12 98.6152 124.266 98.5424L124.631 99.4898C124.266 99.7814 123.829 99.9271 123.392 99.9271C122.809 99.9271 122.444 99.6356 122.225 99.1254ZM119.747 98.3966C119.893 98.4695 120.039 98.5424 120.185 98.5424C120.33 98.5424 120.476 98.6152 120.695 98.6152C120.841 98.6152 121.059 98.5424 121.205 98.4695C121.424 98.3966 121.569 98.3237 121.642 98.1779C121.861 97.9593 122.08 97.7406 122.153 97.4491V95.9186C121.351 95.9186 120.768 95.9914 120.403 96.1372C120.039 96.283 119.747 96.4287 119.529 96.6474C119.31 96.866 119.237 97.0847 119.237 97.3762C119.237 97.6678 119.31 97.8864 119.383 98.0322C119.456 98.2508 119.602 98.3237 119.747 98.3966Z" fill="black"/>
<path d="M128.275 91.9099C128.858 91.4726 129.514 91.254 130.388 91.254C131.627 91.254 132.429 91.6913 132.793 92.5659C132.939 92.8574 133.012 93.2219 133.012 93.732V98.6152L134.105 98.9068V99.8542H130.607L130.388 98.9068L131.482 98.6881V94.0236C131.482 93.5134 131.336 93.149 131.117 92.9303C130.898 92.7117 130.534 92.6388 130.17 92.6388C129.805 92.6388 129.441 92.7117 129.076 92.8574C128.712 93.0032 128.493 93.149 128.348 93.2947V98.6152L129.368 98.9068V99.8542H125.87L125.651 98.9068L126.744 98.6881V92.7117L125.797 92.7846L125.651 91.6913C125.797 91.6913 126.015 91.6184 126.161 91.6184C126.38 91.5455 126.525 91.5455 126.744 91.4727C126.963 91.4727 127.109 91.3998 127.327 91.3998C127.546 91.3998 127.692 91.3269 127.765 91.3269L128.275 91.9099Z" fill="black"/>
<path d="M135.053 95.5541C135.053 94.8982 135.126 94.2422 135.344 93.7321C135.563 93.2219 135.855 92.7846 136.146 92.4202C136.802 91.6913 137.677 91.3269 138.77 91.3269C139.863 91.3269 140.738 91.6913 141.467 92.493C142.195 93.2948 142.56 94.3151 142.56 95.627C142.56 97.0118 142.195 98.1051 141.394 98.8339C140.665 99.5627 139.863 100 138.77 100C137.677 100 136.802 99.6356 136.073 98.8339C135.344 97.9593 135.053 96.866 135.053 95.5541ZM136.729 95.6999C136.729 96.6474 136.948 97.3762 137.312 97.8864C137.677 98.3966 138.187 98.6152 138.77 98.6152C139.353 98.6152 139.863 98.3966 140.3 97.8864C140.665 97.3762 140.884 96.6474 140.884 95.6999C140.884 94.7524 140.665 93.9507 140.3 93.4405C139.936 92.8575 139.426 92.6388 138.77 92.6388C138.114 92.6388 137.604 92.9303 137.239 93.5134C136.875 94.0236 136.729 94.7524 136.729 95.6999Z" fill="black"/>
<path d="M146.787 91.254C147.151 91.254 147.516 91.3269 147.807 91.3998C148.099 91.4727 148.391 91.6184 148.609 91.8371C149.046 92.1286 149.411 92.5659 149.63 93.0032L147.807 93.6592L147.37 92.7846C147.151 92.6388 146.86 92.6388 146.641 92.6388C146.35 92.6388 146.131 92.7117 145.912 92.8574C145.694 93.0032 145.548 93.2218 145.548 93.5863C145.548 93.8778 145.694 94.1693 145.985 94.3151C146.277 94.5337 146.714 94.6795 147.224 94.8982C147.735 95.1168 148.172 95.3355 148.391 95.4812C148.682 95.6999 148.901 95.8457 149.046 96.0643C149.338 96.4287 149.484 96.866 149.484 97.3762C149.484 97.8864 149.411 98.2508 149.192 98.5423C149.046 98.8339 148.755 99.1254 148.536 99.2712C147.953 99.6356 147.297 99.8542 146.496 99.8542C145.84 99.8542 145.184 99.7085 144.601 99.2712C144.018 98.9068 143.653 98.4694 143.434 97.9593L145.257 97.3033L145.694 98.3237C145.985 98.4694 146.204 98.4695 146.423 98.4695C146.641 98.4695 146.86 98.4695 147.006 98.3966C147.151 98.3966 147.297 98.3237 147.37 98.2508C147.662 98.105 147.807 97.8135 147.807 97.4491C147.807 97.0118 147.516 96.6474 147.006 96.4287C146.496 96.2101 145.985 95.9914 145.621 95.7728C145.257 95.5541 144.892 95.4084 144.673 95.1897C144.163 94.7524 143.872 94.1693 143.872 93.4405C143.872 92.7117 144.163 92.1286 144.746 91.6913C145.402 91.4727 145.985 91.254 146.787 91.254Z" fill="black"/>
<path d="M160.562 99.3441C159.979 99.7085 159.396 99.9271 158.813 99.9271C158.23 99.9271 157.647 99.8543 157.282 99.6356C156.845 99.417 156.481 99.1254 156.189 98.761C155.533 97.9593 155.242 96.9389 155.242 95.6999C155.242 94.0965 155.679 92.9303 156.553 92.1286C157.209 91.5456 158.084 91.254 159.032 91.254C159.542 91.254 159.979 91.3269 160.416 91.5455V88.2658L159.396 88.3387L159.25 87.2454L161.437 86.881L161.947 87.4641V98.2508C161.947 98.4695 162.02 98.6152 162.165 98.6152C162.238 98.6152 162.384 98.5424 162.53 98.4695L162.894 99.417C162.53 99.7085 162.093 99.8543 161.582 99.8543C161.072 99.9271 160.708 99.7085 160.562 99.3441ZM160.343 98.0322V93.0761C160.271 93.0032 160.052 92.8575 159.833 92.7846C159.615 92.7117 159.323 92.6388 159.032 92.6388C158.74 92.6388 158.521 92.7117 158.303 92.7846C158.084 92.8575 157.792 93.0032 157.647 93.2948C157.137 93.8049 156.918 94.6067 156.918 95.6999C156.918 96.7203 157.137 97.4491 157.574 98.0322C157.938 98.4695 158.448 98.6881 159.032 98.6881C159.542 98.6152 159.979 98.3966 160.343 98.0322Z" fill="black"/>
<path d="M170.474 93.5863C170.474 93.9507 170.401 94.3151 170.256 94.6796C170.11 95.044 169.891 95.3355 169.527 95.627C168.725 96.283 167.413 96.5745 165.591 96.6474C165.81 97.5949 166.247 98.178 167.049 98.4695C167.34 98.5424 167.632 98.6153 167.923 98.6153C168.215 98.6153 168.506 98.6153 168.725 98.5424C168.944 98.4695 169.162 98.3966 169.308 98.3237C169.6 98.178 169.818 98.0322 169.964 97.8864L170.328 99.1254C170.183 99.2712 169.964 99.417 169.672 99.4899C168.506 100 167.34 100 166.247 99.6356C165.227 99.2712 164.498 98.5424 164.133 97.522C163.915 97.0118 163.842 96.3559 163.842 95.627C163.842 94.8982 163.915 94.3151 164.133 93.7321C164.352 93.2219 164.644 92.7117 165.008 92.3473C165.737 91.6185 166.611 91.1812 167.632 91.1812C168.433 91.1812 169.089 91.3998 169.6 91.7642C170.256 92.3473 170.474 92.9303 170.474 93.5863ZM168.798 93.7321C168.798 93.3677 168.725 93.149 168.506 92.9304C168.361 92.7117 168.069 92.6388 167.705 92.6388C167.34 92.6388 167.122 92.7117 166.83 92.7846C166.611 92.8575 166.393 93.0761 166.174 93.2948C165.737 93.805 165.518 94.4609 165.445 95.3355C166.32 95.3355 166.976 95.2626 167.34 95.1169C167.778 94.9711 168.069 94.8253 168.288 94.6067C168.725 94.388 168.798 94.0965 168.798 93.7321Z" fill="black"/>
<path d="M174.774 91.254C175.139 91.254 175.503 91.3269 175.795 91.3998C176.086 91.4727 176.378 91.6184 176.596 91.8371C177.034 92.1286 177.398 92.5659 177.617 93.0032L175.795 93.6592L175.357 92.7846C175.139 92.6388 174.847 92.6388 174.629 92.6388C174.337 92.6388 174.118 92.7117 173.9 92.8574C173.681 93.0032 173.535 93.2218 173.535 93.5863C173.535 93.8778 173.681 94.1693 173.973 94.3151C174.264 94.5337 174.701 94.6795 175.212 94.8982C175.722 95.1168 176.159 95.3355 176.378 95.4812C176.669 95.6999 176.888 95.8457 177.034 96.0643C177.325 96.4287 177.471 96.866 177.471 97.3762C177.471 97.8864 177.398 98.2508 177.179 98.5423C177.034 98.8339 176.742 99.1254 176.523 99.2712C175.94 99.6356 175.284 99.8542 174.483 99.8542C173.827 99.8542 173.171 99.7085 172.588 99.2712C172.005 98.9068 171.64 98.4694 171.422 97.9593L173.244 97.3033L173.681 98.3237C173.973 98.4694 174.191 98.4695 174.41 98.4695C174.629 98.4695 174.847 98.4695 174.993 98.3966C175.139 98.3966 175.284 98.3237 175.357 98.2508C175.649 98.105 175.795 97.8135 175.795 97.4491C175.795 97.0118 175.503 96.6474 174.993 96.4287C174.483 96.2101 173.973 95.9914 173.608 95.7728C173.244 95.5541 172.879 95.4084 172.661 95.1897C172.15 94.7524 171.859 94.1693 171.859 93.4405C171.859 92.7117 172.15 92.1286 172.734 91.6913C173.389 91.4727 174.045 91.254 174.774 91.254Z" fill="black"/>
<path d="M184.322 99.3441C183.739 99.7085 183.156 99.9271 182.573 99.9271C181.99 99.9271 181.407 99.8543 181.042 99.6356C180.605 99.417 180.241 99.1254 179.949 98.761C179.293 97.9593 179.002 96.9389 179.002 95.6999C179.002 94.0965 179.439 92.9303 180.313 92.1286C180.969 91.5456 181.844 91.254 182.792 91.254C183.302 91.254 183.739 91.3269 184.176 91.5455V88.2658L183.156 88.3387L183.01 87.2454L185.197 86.881L185.78 87.4641V98.2508C185.78 98.4695 185.853 98.6152 185.998 98.6152C186.071 98.6152 186.217 98.5424 186.363 98.4695L186.727 99.417C186.363 99.7085 185.925 99.8543 185.415 99.8543C184.832 99.9271 184.541 99.7085 184.322 99.3441ZM184.103 98.0322V93.0761C184.031 93.0032 183.812 92.8575 183.593 92.7846C183.375 92.7117 183.083 92.6388 182.792 92.6388C182.5 92.6388 182.281 92.7117 182.063 92.7846C181.844 92.8575 181.552 93.0032 181.407 93.2948C180.897 93.8049 180.678 94.6067 180.678 95.6999C180.678 96.7203 180.897 97.4491 181.334 98.0322C181.698 98.4695 182.208 98.6881 182.792 98.6881C183.302 98.6152 183.739 98.3966 184.103 98.0322Z" fill="black"/>
<path d="M194.307 93.5863C194.307 93.9507 194.234 94.3151 194.088 94.6796C193.943 95.044 193.724 95.3355 193.36 95.627C192.558 96.283 191.246 96.5745 189.424 96.6474C189.643 97.5949 190.08 98.178 190.882 98.4695C191.173 98.5424 191.465 98.6153 191.756 98.6153C192.048 98.6153 192.339 98.6153 192.558 98.5424C192.777 98.4695 192.995 98.3966 193.141 98.3237C193.432 98.178 193.651 98.0322 193.797 97.8864L194.161 99.1254C194.016 99.2712 193.797 99.417 193.505 99.4899C192.339 100 191.173 100 190.007 99.6356C188.987 99.2712 188.258 98.5424 187.893 97.522C187.675 97.0118 187.602 96.3559 187.602 95.627C187.602 94.8982 187.675 94.3151 187.893 93.7321C188.112 93.2219 188.404 92.7117 188.768 92.3473C189.497 91.6185 190.371 91.1812 191.392 91.1812C192.193 91.1812 192.849 91.3998 193.36 91.7642C194.016 92.3473 194.307 92.9303 194.307 93.5863ZM192.631 93.7321C192.631 93.3677 192.558 93.149 192.339 92.9304C192.193 92.7117 191.902 92.6388 191.538 92.6388C191.173 92.6388 190.882 92.7117 190.663 92.7846C190.444 92.8575 190.226 93.0761 190.007 93.2948C189.57 93.805 189.351 94.4609 189.278 95.3355C190.153 95.3355 190.809 95.2626 191.173 95.1169C191.61 94.9711 191.902 94.8253 192.121 94.6067C192.485 94.388 192.631 94.0965 192.631 93.7321Z" fill="black"/>
<path d="M201.887 98.3966V89.6506L199.846 90.0879L199.555 88.8489L203.272 87.6827L203.636 87.8285V98.5424L205.312 98.761V99.9271H200.065L199.846 98.761L201.887 98.3966Z" fill="black"/>
<path d="M206.26 96.6473C206.26 95.2626 206.989 94.1693 208.447 93.3676C208.009 93.0761 207.645 92.7116 207.28 92.2743C206.989 91.837 206.843 91.3269 206.843 90.8167C206.843 90.2336 206.916 89.7963 207.135 89.4319C207.353 89.0675 207.572 88.7759 207.936 88.4844C208.665 87.9013 209.394 87.6098 210.269 87.6098C211.143 87.6098 211.945 87.9013 212.674 88.4115C213.403 88.9946 213.767 89.7234 213.767 90.598C213.767 91.3997 213.403 92.1286 212.674 92.7116C212.455 92.8574 212.236 93.0761 212.018 93.2218C212.747 93.6591 213.257 94.0235 213.475 94.388C213.986 95.0439 214.204 95.7727 214.204 96.5016C214.204 97.5219 213.767 98.3965 212.965 99.0525C212.236 99.7084 211.289 100 210.196 100C209.102 100 208.155 99.7085 207.426 99.1983C206.697 98.5423 206.26 97.6677 206.26 96.6473ZM209.831 94.0964C208.665 94.7524 208.082 95.5541 208.082 96.5745C208.082 97.1575 208.301 97.6677 208.811 98.0321C209.248 98.3237 209.613 98.4694 210.05 98.4694C210.487 98.4694 210.779 98.3965 211.07 98.3237C211.362 98.2508 211.58 98.105 211.726 97.9592C212.164 97.5948 212.309 97.1575 212.309 96.6473C212.309 95.8456 211.799 95.1897 210.706 94.6066C210.487 94.388 210.196 94.2422 209.831 94.0964ZM211.508 91.6184C211.726 91.3269 211.872 90.9624 211.872 90.5251C211.872 90.0878 211.726 89.7234 211.435 89.5048C211.143 89.2132 210.779 89.0675 210.269 89.0675C209.831 89.0675 209.394 89.2132 209.102 89.4319C208.811 89.7234 208.665 90.015 208.665 90.3065C208.665 90.598 208.738 90.8896 208.811 91.1082C208.957 91.3269 209.03 91.4726 209.248 91.6184C209.54 91.837 209.977 92.0557 210.56 92.3472C210.925 92.2015 211.289 91.9099 211.508 91.6184Z" fill="black"/>
<path d="M215.735 93.8049C215.735 91.0354 216.464 89.1404 217.994 88.1929C218.577 87.8285 219.233 87.6827 220.108 87.6827C221.638 87.6827 222.804 88.3387 223.533 89.5777C224.189 90.671 224.481 92.0557 224.481 93.8049C224.481 96.5745 223.752 98.4695 222.221 99.417C221.638 99.7814 220.982 99.9271 220.108 99.9271C218.577 99.9271 217.411 99.2712 216.682 98.0322C216.099 96.9389 215.735 95.5541 215.735 93.8049ZM217.63 93.8049C217.63 95.9186 218.067 97.3762 219.014 98.0322C219.306 98.2508 219.67 98.3966 220.108 98.3966C220.909 98.3966 221.565 97.9593 222.003 97.0847C222.367 96.283 222.586 95.1897 222.586 93.8049C222.586 91.6913 222.148 90.2337 221.201 89.5777C220.909 89.3591 220.472 89.2133 220.035 89.2133C219.598 89.2133 219.233 89.3591 218.869 89.5777C218.577 89.7964 218.286 90.1608 218.14 90.5252C217.775 91.3269 217.63 92.4202 217.63 93.8049Z" fill="black"/>
<path d="M225.938 98.6152C226.157 98.3237 226.449 98.0322 226.813 97.6677C227.177 97.3033 227.542 96.866 227.906 96.4287C228.271 95.9914 228.708 95.5541 229.072 95.0439C229.437 94.5338 229.801 94.0965 230.166 93.5863C230.894 92.5659 231.259 91.6913 231.332 90.9625V90.8167C231.332 90.2336 231.113 89.7963 230.749 89.5048C230.384 89.2133 230.02 89.1404 229.583 89.1404C229 89.1404 228.489 89.2862 227.979 89.5777L227.469 91.0354L225.501 89.9421C225.938 89.2133 226.449 88.6302 227.105 88.1929C227.76 87.7556 228.562 87.537 229.364 87.537C230.384 87.537 231.259 87.7556 231.915 88.2658C232.644 88.8489 233.081 89.6506 233.081 90.6709C233.081 91.7642 232.425 93.149 231.113 94.7524C230.457 95.627 229.801 96.3558 229.291 96.9389C228.781 97.522 228.344 97.8864 228.125 98.1779H231.696L232.352 96.283H233.518L233.154 99.7085H225.938V98.6152Z" fill="black"/>
</svg>
